<svg width="245" height="96" viewBox="0 0 245 96" fill="none" xmlns="http://www.w3.org/2000/svg">
<path d="M108.269 68.384C106.157 68.384 105.101 67.296 105.101 65.12V37.424C105.101 35.248 106.189 34.16 108.365 34.16H125.117C126.781 34.16 127.613 34.96 127.613 36.56C127.613 38.224 126.781 39.056 125.117 39.056H111.245V48.608H124.109C125.773 48.608 126.605 49.408 126.605 51.008C126.605 52.672 125.773 53.504 124.109 53.504H111.245V65.12C111.245 67.296 110.253 68.384 108.269 68.384ZM134.936 39.728C133.816 39.728 132.936 39.456 132.296 38.912C131.688 38.336 131.384 37.552 131.384 36.56C131.384 35.536 131.688 34.752 132.296 34.208C132.936 33.664 133.816 33.392 134.936 33.392C137.304 33.392 138.488 34.448 138.488 36.56C138.488 38.672 137.304 39.728 134.936 39.728ZM134.936 68.336C133.976 68.336 133.24 68.048 132.728 67.472C132.216 66.896 131.96 66.096 131.96 65.072V47.456C131.96 45.28 132.952 44.192 134.936 44.192C136.952 44.192 137.96 45.28 137.96 47.456V65.072C137.96 66.096 137.704 66.896 137.192 67.472C136.68 68.048 135.928 68.336 134.936 68.336ZM154.322 68.48C151.666 68.48 149.378 67.984 147.458 66.992C145.538 66 144.05 64.592 142.994 62.768C141.97 60.944 141.458 58.784 141.458 56.288C141.458 53.856 141.954 51.728 142.946 49.904C143.97 48.08 145.362 46.656 147.122 45.632C148.914 44.576 150.946 44.048 153.218 44.048C156.546 44.048 159.17 45.104 161.09 47.216C163.042 49.328 164.018 52.208 164.018 55.856C164.018 57.04 163.25 57.632 161.714 57.632H147.218C147.666 61.824 150.066 63.92 154.418 63.92C155.25 63.92 156.178 63.824 157.202 63.632C158.258 63.408 159.25 63.04 160.178 62.528C161.01 62.048 161.714 61.904 162.29 62.096C162.866 62.256 163.266 62.592 163.49 63.104C163.746 63.616 163.778 64.192 163.586 64.832C163.426 65.44 162.978 65.968 162.242 66.416C161.122 67.12 159.826 67.648 158.354 68C156.914 68.32 155.57 68.48 154.322 68.48ZM153.458 48.128C151.698 48.128 150.274 48.672 149.186 49.76C148.098 50.848 147.442 52.32 147.218 54.176H159.026C158.898 52.224 158.354 50.736 157.394 49.712C156.466 48.656 155.154 48.128 153.458 48.128ZM170.306 68.384C168.322 68.384 167.33 67.36 167.33 65.312V47.168C167.33 45.152 168.306 44.144 170.258 44.144C172.21 44.144 173.186 45.152 173.186 47.168V48.176C173.986 46.832 175.058 45.808 176.402 45.104C177.778 44.4 179.314 44.048 181.01 44.048C186.546 44.048 189.314 47.264 189.314 53.696V65.312C189.314 67.36 188.322 68.384 186.338 68.384C184.322 68.384 183.314 67.36 183.314 65.312V53.984C183.314 52.16 182.962 50.832 182.258 50C181.586 49.168 180.53 48.752 179.09 48.752C177.33 48.752 175.922 49.312 174.866 50.432C173.842 51.52 173.33 52.976 173.33 54.8V65.312C173.33 67.36 172.322 68.384 170.306 68.384ZM204.816 68.48C202.352 68.48 200.208 67.984 198.384 66.992C196.56 65.968 195.152 64.528 194.16 62.672C193.168 60.816 192.672 58.64 192.672 56.144C192.672 53.648 193.168 51.504 194.16 49.712C195.152 47.888 196.56 46.496 198.384 45.536C200.208 44.544 202.352 44.048 204.816 44.048C205.872 44.048 207.008 44.192 208.224 44.48C209.472 44.768 210.64 45.248 211.728 45.92C212.368 46.304 212.736 46.8 212.832 47.408C212.96 48.016 212.88 48.576 212.592 49.088C212.336 49.6 211.936 49.968 211.392 50.192C210.88 50.416 210.288 50.336 209.616 49.952C208.144 49.12 206.72 48.704 205.344 48.704C203.264 48.704 201.648 49.36 200.496 50.672C199.376 51.952 198.816 53.792 198.816 56.192C198.816 58.56 199.376 60.432 200.496 61.808C201.648 63.152 203.264 63.824 205.344 63.824C206.72 63.824 208.144 63.424 209.616 62.624C210.288 62.24 210.88 62.16 211.392 62.384C211.904 62.608 212.272 62.992 212.496 63.536C212.72 64.048 212.768 64.608 212.64 65.216C212.512 65.792 212.144 66.272 211.536 66.656C210.48 67.296 209.36 67.76 208.176 68.048C206.992 68.336 205.872 68.48 204.816 68.48ZM226.268 68.48C223.612 68.48 221.324 67.984 219.404 66.992C217.484 66 215.996 64.592 214.94 62.768C213.916 60.944 213.404 58.784 213.404 56.288C213.404 53.856 213.9 51.728 214.892 49.904C215.916 48.08 217.308 46.656 219.068 45.632C220.86 44.576 222.892 44.048 225.164 44.048C228.492 44.048 231.116 45.104 233.036 47.216C234.988 49.328 235.964 52.208 235.964 55.856C235.964 57.04 235.196 57.632 233.66 57.632H219.164C219.612 61.824 222.012 63.92 226.364 63.92C227.196 63.92 228.124 63.824 229.148 63.632C230.204 63.408 231.196 63.04 232.124 62.528C232.956 62.048 233.66 61.904 234.236 62.096C234.812 62.256 235.212 62.592 235.436 63.104C235.692 63.616 235.724 64.192 235.532 64.832C235.372 65.44 234.924 65.968 234.188 66.416C233.068 67.12 231.772 67.648 230.3 68C228.86 68.32 227.516 68.48 226.268 68.48ZM225.404 48.128C223.644 48.128 222.22 48.672 221.132 49.76C220.044 50.848 219.388 52.32 219.164 54.176H230.972C230.844 52.224 230.3 50.736 229.34 49.712C228.412 48.656 227.1 48.128 225.404 48.128Z" fill="#212121"/>
<g filter="url(#filter0_i_318_533)">
<ellipse cx="47.9998" cy="47.9999" rx="47.9997" ry="47.9999" transform="rotate(-180 47.9998 47.9999)" fill="#4A44C6"/>
</g>
<path d="M38.9475 77.0217C39.0834 80.6485 35.978 83.379 33.5081 80.7196C31.6857 78.7574 30.0241 75.8585 28.6378 72.2229C27.2515 68.5874 26.1736 64.3017 25.4785 59.6615C24.7834 55.0213 24.4875 50.1372 24.6114 45.346C24.7353 40.5548 25.2759 35.9707 26.196 31.9099C27.1161 27.8491 28.3938 24.4082 29.9409 21.8248C31.4879 19.2413 33.2676 17.5767 35.1571 16.9458C38.6462 15.7808 40.1355 20.4912 39.2958 24.0726C37.3642 32.311 37.1732 39.0161 37.9393 50.1264L38.9475 77.0217Z" fill="#E9E9FF"/>
<path d="M67.9352 25.2005C72.0406 22.3446 70.634 16.0941 65.6517 15.6611C59.9806 15.1683 54.1096 15.0369 47.6676 15.3175C44.2726 15.4654 41.7072 15.5108 39.6796 15.5269C31.5766 15.5909 28.0374 24.244 31.5824 31.5308L33.0638 34.5759C33.6648 35.8114 35.4586 37.7629 35.9998 36.5001C37.8251 32.2408 39.505 27.1946 44.0025 26.0783C46.3324 25.5 48.9843 25.4999 51.5049 25.4999C55.6238 25.4999 59.9201 25.6736 63.6832 26.1764C65.1745 26.3756 66.7001 26.0597 67.9352 25.2005Z" fill="#E9E9FF"/>
<path d="M67.6665 42.1558C71.1923 43.7612 70.8525 48.9786 67.1079 49.9715C61.958 51.337 56.661 52.3313 49.4996 52.5381C39.5419 52.8257 39.4199 53.6149 33.2368 52.1887C30.927 51.6558 29.9266 48.939 31.276 46.9899L36.3614 39.6444C36.71 39.1408 37.4998 39.3875 37.4998 40C37.4998 44.9052 44.3336 44.9915 47.687 44.7385C48.8992 44.6471 50.1081 44.5425 51.3224 44.4867C54.0752 44.3603 59.3486 43.9231 62.9039 42.4114C64.4149 41.7689 66.1722 41.4754 67.6665 42.1558Z" fill="#E9E9FF"/>
<defs>
<filter id="filter0_i_318_533" x="0" y="-4" width="95.9995" height="99.9998" filterUnits="userSpaceOnUse" color-interpolation-filters="sRGB">
<feFlood flood-opacity="0" result="BackgroundImageFix"/>
<feBlend mode="normal" in="SourceGraphic" in2="BackgroundImageFix" result="shape"/>
<feColorMatrix in="SourceAlpha" type="matrix" values="0 0 0 0 0 0 0 0 0 0 0 0 0 0 0 0 0 0 127 0" result="hardAlpha"/>
<feOffset dy="-4"/>
<feGaussianBlur stdDeviation="2"/>
<feComposite in2="hardAlpha" operator="arithmetic" k2="-1" k3="1"/>
<feColorMatrix type="matrix" values="0 0 0 0 0.705898 0 0 0 0 0.691667 0 0 0 0 1 0 0 0 0.33 0"/>
<feBlend mode="normal" in2="shape" result="effect1_innerShadow_318_533"/>
</filter>
</defs>
</svg>
