<svg width="96" height="96" viewBox="0 0 96 96" fill="none" xmlns="http://www.w3.org/2000/svg">
<g filter="url(#filter0_i_321_353)">
<ellipse cx="47.9998" cy="47.9999" rx="47.9997" ry="47.9999" transform="rotate(-180 47.9998 47.9999)" fill="url(#paint0_linear_321_353)"/>
</g>
<path d="M38.9475 77.0217C39.0834 80.6485 35.978 83.379 33.5081 80.7196V80.7196C31.6857 78.7574 30.0241 75.8585 28.6378 72.2229C27.2515 68.5874 26.1736 64.3016 25.4785 59.6615C24.7834 55.0213 24.4875 50.1372 24.6114 45.346C24.7353 40.5548 25.2759 35.9707 26.196 31.9099C27.1161 27.8491 28.3938 24.4082 29.9409 21.8248C31.4879 19.2413 33.2676 17.5767 35.1571 16.9458V16.9458C38.6462 15.7808 40.1355 20.4912 39.2958 24.0726C37.3642 32.311 37.1732 39.0161 37.9393 50.1264L38.9475 77.0217Z" fill="white"/>
<path d="M67.9352 25.2005C72.0406 22.3446 70.634 16.0941 65.6517 15.6611C59.9806 15.1683 54.1096 15.0369 47.6676 15.3175C44.2726 15.4654 41.7072 15.5108 39.6796 15.5269C31.5766 15.5909 28.0374 24.244 31.5824 31.5308L33.0638 34.5759C33.6648 35.8114 35.4586 37.7629 35.9998 36.5001V36.5001V36.5001C37.8251 32.2408 39.505 27.1946 44.0025 26.0783C46.3324 25.5 48.9843 25.4999 51.5049 25.4999C55.6238 25.4999 59.9201 25.6736 63.6832 26.1764C65.1745 26.3756 66.7001 26.0597 67.9352 25.2005V25.2005Z" fill="white"/>
<path d="M67.6665 42.1558C71.1923 43.7612 70.8525 48.9786 67.1079 49.9715C61.958 51.337 56.661 52.3313 49.4996 52.5381C39.5419 52.8257 39.4199 53.6149 33.2368 52.1887C30.927 51.6558 29.9266 48.939 31.276 46.9899L36.3614 39.6444C36.71 39.1408 37.4998 39.3875 37.4998 40V40C37.4998 44.9052 44.3336 44.9915 47.687 44.7385C48.8992 44.6471 50.1081 44.5425 51.3224 44.4867C54.0752 44.3603 59.3486 43.9231 62.9039 42.4114C64.4149 41.7689 66.1722 41.4754 67.6665 42.1558V42.1558Z" fill="white"/>
<defs>
<filter id="filter0_i_321_353" x="0" y="-4" width="95.9995" height="99.9998" filterUnits="userSpaceOnUse" color-interpolation-filters="sRGB">
<feFlood flood-opacity="0" result="BackgroundImageFix"/>
<feBlend mode="normal" in="SourceGraphic" in2="BackgroundImageFix" result="shape"/>
<feColorMatrix in="SourceAlpha" type="matrix" values="0 0 0 0 0 0 0 0 0 0 0 0 0 0 0 0 0 0 127 0" result="hardAlpha"/>
<feOffset dy="-4"/>
<feGaussianBlur stdDeviation="2"/>
<feComposite in2="hardAlpha" operator="arithmetic" k2="-1" k3="1"/>
<feColorMatrix type="matrix" values="0 0 0 0 0.705898 0 0 0 0 0.691667 0 0 0 0 1 0 0 0 0.33 0"/>
<feBlend mode="normal" in2="shape" result="effect1_innerShadow_321_353"/>
</filter>
<linearGradient id="paint0_linear_321_353" x1="-7.00046" y1="-8.50021" x2="95.9995" y2="117.5" gradientUnits="userSpaceOnUse">
<stop stop-color="#5F59E1"/>
<stop offset="1" stop-color="#B1ADFF"/>
</linearGradient>
</defs>
</svg>
