<svg width="357" height="579" viewBox="0 0 357 579" fill="none" xmlns="http://www.w3.org/2000/svg">
<g clip-path="url(#clip0_313_327)">
<rect x="304.774" y="106" width="54.1839" height="20.8568" rx="2" transform="rotate(18.953 304.774 106)" fill="#FF6584"/>
<rect x="304.762" y="103.918" width="44.5585" height="21.9935" rx="2" transform="rotate(17.9057 304.762 103.918)" fill="#F9A826"/>
<path d="M108.143 110.16C106.29 117.517 100.252 132.311 100.199 139.941L100.617 139.401C101.749 140.847 102.996 142.198 104.346 143.442C106.128 140.977 108.403 138.91 111.028 137.373C109.932 140.696 109.513 144.205 109.795 147.693C114.049 156.636 127.27 150.599 135.21 148.48C144.531 156.611 155.591 157.559 168.924 150.344C172.91 150.214 177.343 149.862 179.782 147.165C182.221 144.467 169.536 130.676 170.576 127.222C177.982 102.613 177.563 105.29 167.858 95.9073C165.722 93.8426 165.26 90.3908 162.744 88.4859C159.253 85.8458 154.412 85.546 149.963 85.3833C151.1 85.2893 152.194 84.9042 153.139 84.2651C154.084 83.6259 154.849 82.7542 155.359 81.7339C155.791 80.7172 155.933 79.6012 155.77 78.5088C155.608 77.4164 155.146 76.3902 154.438 75.5433C152.533 73.1778 149.099 72.1184 145.933 72.1677C142.834 72.3765 139.787 73.0608 136.896 74.1965C134.995 74.7144 133.201 75.5686 131.6 76.7188C130.846 77.2637 130.275 78.0261 129.965 78.904C129.655 79.7819 129.62 80.7335 129.866 81.6316C130.24 82.4409 130.793 83.1552 131.482 83.7212C132.171 84.2872 132.979 84.6904 133.845 84.9006C135.172 85.2605 136.54 85.4423 137.915 85.4413C131.606 85.4796 125.458 87.438 120.289 91.056C113.829 95.7182 110.006 102.805 108.143 110.16Z" fill="#2F2E41"/>
<path d="M172.222 125.117C175.464 111.624 167.153 98.0574 153.66 94.8156C140.167 91.5739 126.6 99.8845 123.358 113.378C120.117 126.871 128.427 140.438 141.921 143.679C155.414 146.921 168.981 138.611 172.222 125.117Z" fill="#FFB6B6"/>
<path d="M131.017 109.155C133.054 113.321 137.371 114.166 141.303 114.525C142.543 114.642 143.789 114.738 145.041 114.805C145.415 114.18 145.819 113.563 146.248 112.974C148.03 110.508 150.305 108.441 152.93 106.904C152.061 109.53 151.621 112.278 151.624 115.043C153.975 115.064 156.33 115.023 158.689 114.918C160.718 115.07 162.728 114.436 164.303 113.148C165.878 111.86 166.898 110.016 167.153 107.997C169.746 111.179 172.699 114.105 176.317 115.017C180.541 115.917 173.858 113.959 175.964 110.188C177.678 107.402 178.364 103.879 178.746 100.517C179.194 96.5212 179.13 91.9969 176.885 89.8054C175.084 88.0297 167.99 93.7142 165.576 94.2215C160.252 95.3656 170.508 91.6933 165.53 93.9L165.225 94.946C165.388 89.4745 162.757 84.5892 158.933 83.2443C156.356 82.348 153.483 82.9476 150.699 83.579C147.101 84.2327 143.618 85.4107 140.362 87.0754C136.644 89.1175 133.648 92.2583 131.784 96.0682C129.799 100.207 129.26 105.556 131.017 109.155Z" fill="#2F2E41"/>
<path d="M154.348 81.0583C154.093 81.0192 154.742 81.0258 154.522 81.0618C154.631 81.0405 154.738 81.0104 154.842 80.9718C154.859 80.9657 155.097 80.8529 154.94 80.9334C155.295 80.7726 155.595 80.5125 155.805 80.1845C156.292 79.3817 156.64 78.5028 156.834 77.5845C157.073 76.3734 157.564 75.2265 158.277 74.219C158.482 73.9489 158.747 73.7308 159.052 73.5825C159.356 73.4342 159.692 73.3597 160.03 73.3653C160.369 73.3708 160.702 73.4562 161.001 73.6144C161.301 73.7726 161.559 73.9992 161.754 74.2758C162.385 75.2826 162.122 76.6644 161.919 77.7649C161.711 78.908 161.32 80.0101 160.761 81.0287C159.819 82.698 158.412 84.0573 156.711 84.9408C154.743 85.9738 152.495 86.3451 150.3 85.9996C150.006 85.9219 149.74 85.7602 149.536 85.5343C149.332 85.3084 149.198 85.0281 149.151 84.7273C149.103 84.4266 149.144 84.1186 149.268 83.8407C149.393 83.5628 149.595 83.3271 149.851 83.1623L153.173 81.2443C153.347 81.1376 153.541 81.0663 153.742 81.0344C153.944 81.0025 154.15 81.0106 154.348 81.0583C154.547 81.106 154.734 81.1923 154.899 81.3123C155.064 81.4324 155.204 81.5838 155.311 81.7578C155.418 81.9319 155.489 82.1253 155.521 82.327C155.553 82.5286 155.545 82.7346 155.497 82.9331C155.449 83.1316 155.363 83.3188 155.243 83.4839C155.123 83.6491 154.971 83.789 154.797 83.8956L151.475 85.8136L151.027 82.9763C151.483 83.0434 151.945 83.0592 152.404 83.0235C152.898 83.0061 153.386 82.9186 153.854 82.7637C154.307 82.6408 154.744 82.4689 155.159 82.2512C155.425 82.1111 155.683 81.9575 155.934 81.7912C156.024 81.7307 156.114 81.6686 156.203 81.6048C156.196 81.6094 156.573 81.3154 156.409 81.4518C156.824 81.0992 157.206 80.7086 157.549 80.2852C157.67 80.1351 157.779 79.9754 157.874 79.8077C158.04 79.5342 158.191 79.2513 158.325 78.9603C158.595 78.3459 158.786 77.7004 158.896 77.0386C158.949 76.7595 158.988 76.4778 159.012 76.1947C159.008 76.0416 159.015 75.8884 159.033 75.7362C159.115 75.3679 159.036 75.9443 159.206 76.0757L159.92 76.4654C160.046 76.4851 160.176 76.4761 160.299 76.4389C160.421 76.4018 160.534 76.3375 160.629 76.2509C160.691 76.1323 160.676 76.1525 160.586 76.3115C160.48 76.4984 160.387 76.6918 160.306 76.8905C160.132 77.356 159.983 77.83 159.857 78.3107C159.602 79.3315 159.238 80.3221 158.773 81.2656C158.32 82.2175 157.578 83.0022 156.653 83.5078C155.729 84.0134 154.668 84.2142 153.622 84.0815C153.223 83.9822 152.879 83.73 152.664 83.3793C152.449 83.0286 152.381 82.6074 152.474 82.2067C152.577 81.8102 152.83 81.4692 153.18 81.2551C153.529 81.0411 153.948 80.9705 154.348 81.0583V81.0583Z" fill="#2F2E41"/>
<path d="M145.159 555.251L156.689 555.25L162.174 510.779H145.157L145.159 555.251Z" fill="#FFB6B6"/>
<path d="M160.525 556.288V548.472L157.494 548.657L145.156 549.388L142.3 549.564L140.117 575.741L140 577.145H148.187L148.45 575.751L149.639 569.416L152.709 575.751L153.382 577.145H175.086C176.377 577.136 177.614 576.619 178.526 575.705C179.438 574.791 179.953 573.554 179.959 572.262C180.875 567.984 162.825 558.735 160.525 556.288Z" fill="#2F2E41"/>
<path d="M16.7998 541.356L26.2928 547.899L56.0478 514.396L42.0368 504.74L16.7998 541.356Z" fill="#FFB6B6"/>
<path d="M28.8628 550.931L33.2987 544.496L30.698 542.928L20.1244 536.528L17.6737 535.052L1.01974 555.366L0.126953 556.455L6.86737 561.101L7.875 560.103L12.4491 555.562L11.3816 562.52L11.1443 564.049L29.0146 576.367C30.0826 577.093 31.3941 577.369 32.6641 577.134C33.9341 576.899 35.0602 576.173 35.7978 575.112C38.9803 572.11 29.3682 554.251 28.8628 550.931Z" fill="#2F2E41"/>
<path d="M303.939 103.122C303.048 105.06 301.436 106.574 299.446 107.342C297.456 108.11 295.245 108.071 293.283 107.233C292.887 107.056 292.506 106.847 292.144 106.608L242.649 144.106L227.098 130.939L290.363 95.115C291.472 93.6925 293.02 92.677 294.767 92.227C296.513 91.777 298.36 91.9179 300.018 92.6276C301.915 93.4615 303.404 95.015 304.156 96.9465C304.908 98.8779 304.862 101.029 304.028 102.927C304 102.992 303.97 103.057 303.939 103.122Z" fill="#FFB6B6"/>
<path d="M158.591 208.436C158.591 208.436 141.099 203.973 153.352 181.003C165.605 158.033 212.733 132.418 215.995 132.099C219.257 131.78 216.611 134.888 222.262 129.765C226.857 125.598 228.738 129.567 228.909 127.541C229.36 122.198 236.326 131.298 235.401 124.735C234.476 118.171 250.217 139.282 250.217 139.282C250.217 139.282 250.212 143.195 241.945 146.369C237.301 148.152 234.062 146.642 234.171 150.637C234.28 154.631 224.755 153.137 223.521 154.011C222.287 154.884 201.458 182.638 201.458 182.638L158.591 208.436Z" fill="#F9A826"/>
<path d="M324.032 182.204C302.65 176.882 284.292 166.42 269.941 149.149C268.847 148.479 268.063 147.402 267.762 146.155C267.461 144.908 267.667 143.592 268.335 142.496L293.299 101.646C293.969 100.552 295.046 99.7681 296.293 99.4671C297.54 99.166 298.856 99.3719 299.951 100.04L354.042 133.095C355.136 133.765 355.92 134.842 356.221 136.089C356.522 137.336 356.316 138.652 355.648 139.747L330.685 180.598C330.014 181.692 328.938 182.476 327.69 182.777C326.443 183.078 325.127 182.872 324.032 182.204Z" fill="#363557"/>
<path d="M309.609 169.087C298.351 167.858 286.651 158.859 274.835 147.836C273.81 147.208 273.076 146.2 272.794 145.032C272.512 143.863 272.705 142.631 273.331 141.605L294.785 106.498C295.413 105.473 296.421 104.739 297.589 104.457C298.757 104.175 299.989 104.368 301.015 104.993L349.149 134.408C350.174 135.035 350.908 136.044 351.189 137.212C351.471 138.38 351.278 139.612 350.653 140.638L337.363 162.387C334.566 166.951 330.074 170.219 324.871 171.475C319.668 172.731 314.179 171.872 309.609 169.087V169.087Z" fill="#363557"/>
<path d="M253.114 204.765C253.603 202.838 251.752 200.705 248.981 200.003C246.209 199.301 243.567 200.294 243.078 202.222C242.589 204.15 244.44 206.282 247.211 206.985C249.983 207.687 252.625 206.693 253.114 204.765Z" fill="#FF6584"/>
<path d="M251.921 227.277C252.409 225.349 250.559 223.217 247.787 222.514C245.016 221.812 242.373 222.806 241.885 224.734C241.396 226.661 243.247 228.794 246.018 229.496C248.789 230.198 251.432 229.205 251.921 227.277Z" fill="#FF6584"/>
<path d="M346.981 193.615C347.182 191.819 346.332 190.25 345.083 190.111C343.834 189.971 342.658 191.314 342.458 193.109C342.257 194.905 343.107 196.474 344.356 196.614C345.605 196.753 346.781 195.411 346.981 193.615Z" fill="#3F3D56"/>
<path d="M269.381 224.442C269.581 222.646 268.731 221.077 267.482 220.938C266.233 220.798 265.058 222.141 264.857 223.936C264.656 225.732 265.506 227.301 266.755 227.44C268.005 227.58 269.18 226.238 269.381 224.442Z" fill="#E6E6E6"/>
<path d="M286.412 218.043C286.613 216.247 285.763 214.679 284.514 214.539C283.265 214.399 282.089 215.742 281.889 217.538C281.688 219.333 282.538 220.902 283.787 221.042C285.036 221.181 286.212 219.839 286.412 218.043Z" fill="#FF6584"/>
<path d="M265.43 200.757C265.631 198.961 264.781 197.392 263.531 197.253C262.282 197.113 261.107 198.456 260.906 200.251C260.706 202.047 261.556 203.616 262.805 203.755C264.054 203.895 265.229 202.552 265.43 200.757Z" fill="white"/>
<path d="M202.263 304.623L202.56 301.504L189.736 266.346L135.085 276.884C135.085 276.884 106.919 311.583 113.182 334.549C114.881 340.777 93.508 382.145 100.542 377.683C107.576 373.222 93.2261 385.64 96.9012 385.931C100.576 386.222 94.8049 390.551 93.7118 392.912C68.5379 447.284 28.2773 518.278 28.2773 518.278C28.2773 518.278 36.6506 541.817 49.8625 528.655C63.0745 515.494 151.459 398.576 151.459 398.576C151.459 398.576 150.268 406.188 148.607 417.761C143.475 453.516 135.414 525.495 142.576 529.222C148.294 532.181 154.696 533.568 161.126 533.24C161.126 533.24 208.526 423.629 202.263 402.751" fill="#2F2E41"/>
<path d="M169.949 157.986L164.862 147.413L137.305 150.752L134.456 159.378C126.47 167.356 119.891 176.628 114.999 186.802C107.374 203.091 132.752 275.046 128.576 279.222C124.4 283.397 108.929 285.647 115.888 290.763C122.847 295.878 115.888 292.607 114.154 298.443C112.419 304.279 109.004 327.508 109.004 327.508C109.004 327.508 135.5 349.718 152.202 316.313C176.56 318.4 181.432 295.434 181.432 295.434L189.621 281.872C200.245 277.008 183.868 221.316 188.043 210.181C192.219 199.046 169.949 157.986 169.949 157.986Z" fill="#F9A826"/>
<path d="M195.133 277.205C195.196 273.114 195.184 268.71 197 264.941C198.364 262.111 200.896 259.283 204.233 259.046C207.07 258.845 210.29 260.522 210.551 263.606C210.861 267.271 207.775 270.773 205.276 273.087C202.257 275.86 198.581 277.819 194.595 278.777C194.316 278.862 194.066 279.025 193.877 279.248C193.688 279.47 193.568 279.743 193.53 280.032C193.492 280.322 193.539 280.616 193.664 280.88C193.789 281.144 193.988 281.365 194.237 281.519C197.41 283.274 200.215 285.625 202.498 288.443C204.606 291.047 206.786 294.486 207.231 297.874C207.421 299.318 207.165 301.073 205.636 301.676C204.184 302.249 202.418 301.503 201.172 300.765C198.242 298.816 195.946 296.052 194.567 292.814C192.865 289.146 192.292 285.055 192.92 281.06C193.23 279.172 190.34 278.359 190.028 280.263C188.653 288.649 192 298.637 199.503 303.26C202.917 305.364 208.125 305.733 209.84 301.294C211.393 297.272 208.823 292.439 206.676 289.13C203.922 284.889 200.171 281.386 195.751 278.928L195.392 281.67C199.749 280.598 203.774 278.469 207.11 275.47C210.303 272.603 213.741 268.347 213.564 263.803C213.404 259.719 210.141 256.757 206.229 256.16C201.976 255.511 198.181 257.828 195.744 261.188C192.401 265.797 192.218 271.733 192.133 277.204C192.147 277.593 192.311 277.962 192.59 278.232C192.87 278.502 193.244 278.653 193.633 278.653C194.022 278.653 194.396 278.502 194.676 278.232C194.956 277.962 195.12 277.593 195.133 277.204L195.133 277.205Z" fill="#2F2E41"/>
<path d="M73.301 334.488C75.1928 333.502 76.6254 331.817 77.2939 329.792C77.9624 327.766 77.8141 325.559 76.8805 323.641C76.6846 323.254 76.457 322.884 76.2 322.535L111.206 271.248L97.287 256.366L64.633 321.324C63.267 322.501 62.3292 324.098 61.9661 325.865C61.6029 327.632 61.8349 329.469 62.6256 331.09C63.0845 332.008 63.7196 332.826 64.4948 333.499C65.27 334.172 66.1701 334.685 67.1437 335.01C68.1173 335.334 69.1453 335.464 70.1691 335.391C71.1928 335.319 72.1922 335.045 73.1103 334.587C73.1743 334.555 73.2379 334.522 73.301 334.488Z" fill="#FFB6B6"/>
<path d="M171.305 184.113C171.305 184.113 165.983 166.863 143.646 180.237C121.31 193.61 98.0547 241.946 97.8973 245.219C97.7399 248.493 100.714 245.697 95.8758 251.594C91.9411 256.39 95.998 258.072 93.9829 258.343C88.6691 259.057 98.1015 265.565 91.5007 264.966C84.8999 264.366 106.762 279.045 106.762 279.045C106.762 279.045 110.67 278.847 113.432 270.432C114.984 265.706 113.315 262.545 117.31 262.457C121.306 262.369 119.343 252.93 120.154 251.654C120.965 250.378 147.656 228.203 147.656 228.203L171.305 184.113Z" fill="#F9A826"/>
<path d="M136.348 99.0117C152.772 80.0705 123.576 130.221 145.387 149.772C136.498 156.826 103.891 154.323 105.734 149.772C107.576 145.222 113.616 101.802 120.096 99.0117C126.576 96.2215 136.348 99.0117 136.348 99.0117Z" fill="#2F2E41"/>
<path d="M113.958 336.741C114.446 334.813 112.596 332.681 109.824 331.979C107.053 331.276 104.41 332.27 103.922 334.198C103.433 336.126 105.284 338.258 108.055 338.96C110.826 339.662 113.469 338.669 113.958 336.741Z" fill="white"/>
<path d="M80.114 336.523C80.6025 334.595 78.752 332.463 75.9806 331.76C73.2093 331.058 70.5666 332.051 70.078 333.979C69.5894 335.907 71.44 338.04 74.2113 338.742C76.9827 339.444 79.6254 338.451 80.114 336.523Z" fill="#3F3D56"/>
<path d="M120.309 364.819C120.797 362.891 118.947 360.759 116.175 360.057C113.404 359.355 110.761 360.348 110.273 362.276C109.784 364.204 111.635 366.336 114.406 367.039C117.177 367.741 119.82 366.747 120.309 364.819Z" fill="#FF6584"/>
<path d="M128.198 375.407C128.399 373.611 127.549 372.043 126.3 371.903C125.05 371.763 123.875 373.106 123.674 374.902C123.474 376.697 124.324 378.266 125.573 378.406C126.822 378.545 127.997 377.203 128.198 375.407Z" fill="#E6E6E6"/>
<path d="M130.981 396.615C131.182 394.819 130.332 393.25 129.083 393.111C127.833 392.971 126.658 394.314 126.458 396.109C126.257 397.905 127.107 399.474 128.356 399.614C129.605 399.753 130.781 398.411 130.981 396.615Z" fill="#3F3D56"/>
<path d="M96.3806 356.199C96.5813 354.403 95.7313 352.834 94.4821 352.695C93.2329 352.555 92.0576 353.898 91.857 355.693C91.6563 357.489 92.5063 359.058 93.7555 359.198C95.0047 359.337 96.18 357.995 96.3806 356.199Z" fill="#E6E6E6"/>
<path d="M113.412 349.8C113.613 348.005 112.763 346.436 111.514 346.296C110.265 346.157 109.089 347.499 108.889 349.295C108.688 351.091 109.538 352.66 110.787 352.799C112.036 352.939 113.212 351.596 113.412 349.8Z" fill="#FF6584"/>
<path d="M92.43 332.514C92.6306 330.718 91.7806 329.15 90.5314 329.01C89.2822 328.87 88.1069 330.213 87.9063 332.009C87.7056 333.804 88.5556 335.373 89.8048 335.513C91.054 335.652 92.2293 334.31 92.43 332.514Z" fill="#3F3D56"/>
<path d="M312.958 286.741C313.446 284.813 311.596 282.681 308.824 281.979C306.053 281.276 303.41 282.27 302.922 284.198C302.433 286.126 304.284 288.258 307.055 288.96C309.826 289.662 312.469 288.669 312.958 286.741Z" fill="white"/>
<path d="M279.114 286.523C279.603 284.595 277.752 282.463 274.981 281.76C272.209 281.058 269.567 282.052 269.078 283.979C268.589 285.907 270.44 288.04 273.211 288.742C275.983 289.444 278.625 288.451 279.114 286.523Z" fill="#3F3D56"/>
<path d="M319.309 314.819C319.797 312.891 317.947 310.759 315.175 310.057C312.404 309.355 309.761 310.348 309.273 312.276C308.784 314.204 310.635 316.336 313.406 317.039C316.178 317.741 318.82 316.747 319.309 314.819Z" fill="#FF6584"/>
<path d="M327.198 325.407C327.399 323.611 326.549 322.043 325.299 321.903C324.05 321.763 322.875 323.106 322.674 324.902C322.474 326.697 323.324 328.266 324.573 328.406C325.822 328.545 326.997 327.203 327.198 325.407Z" fill="#E6E6E6"/>
<path d="M329.981 346.615C330.182 344.819 329.332 343.25 328.083 343.111C326.834 342.971 325.658 344.314 325.458 346.109C325.257 347.905 326.107 349.474 327.356 349.614C328.605 349.753 329.781 348.411 329.981 346.615Z" fill="#3F3D56"/>
<path d="M295.381 306.199C295.581 304.403 294.731 302.835 293.482 302.695C292.233 302.555 291.058 303.898 290.857 305.694C290.656 307.489 291.506 309.058 292.755 309.198C294.005 309.337 295.18 307.995 295.381 306.199Z" fill="#E6E6E6"/>
<path d="M312.412 299.8C312.613 298.005 311.763 296.436 310.514 296.296C309.265 296.157 308.089 297.499 307.889 299.295C307.688 301.091 308.538 302.66 309.787 302.799C311.036 302.939 312.212 301.596 312.412 299.8Z" fill="#FF6584"/>
<path d="M291.43 282.514C291.631 280.718 290.781 279.15 289.531 279.01C288.282 278.87 287.107 280.213 286.906 282.009C286.706 283.804 287.556 285.373 288.805 285.513C290.054 285.652 291.229 284.31 291.43 282.514Z" fill="#3F3D56"/>
<path d="M43.9577 136.741C44.4463 134.813 42.5958 132.681 39.8244 131.979C37.0531 131.276 34.4103 132.27 33.9218 134.198C33.4332 136.126 35.2838 138.258 38.0551 138.96C40.8265 139.662 43.4692 138.669 43.9577 136.741Z" fill="white"/>
<path d="M10.114 136.523C10.6025 134.595 8.75199 132.463 5.98063 131.76C3.20928 131.058 0.566589 132.051 0.078012 133.979C-0.410565 135.907 1.43998 138.04 4.21134 138.742C6.98269 139.444 9.62539 138.451 10.114 136.523Z" fill="#3F3D56"/>
<path d="M50.3088 164.819C50.7974 162.891 48.9468 160.759 46.1755 160.057C43.4041 159.355 40.7614 160.348 40.2728 162.276C39.7843 164.204 41.6348 166.336 44.4062 167.039C47.1775 167.741 49.8202 166.747 50.3088 164.819Z" fill="#FF6584"/>
<path d="M58.198 175.407C58.3987 173.611 57.5486 172.043 56.2995 171.903C55.0503 171.763 53.875 173.106 53.6743 174.902C53.4737 176.697 54.3237 178.266 55.5729 178.406C56.822 178.545 57.9974 177.203 58.198 175.407Z" fill="#E6E6E6"/>
<path d="M60.9812 196.615C61.1819 194.819 60.3319 193.25 59.0827 193.111C57.8335 192.971 56.6582 194.314 56.4575 196.109C56.2569 197.905 57.1069 199.474 58.3561 199.614C59.6052 199.753 60.7806 198.411 60.9812 196.615Z" fill="#3F3D56"/>
<path d="M26.3806 156.199C26.5813 154.403 25.7313 152.834 24.4821 152.695C23.2329 152.555 22.0576 153.898 21.857 155.693C21.6563 157.489 22.5063 159.058 23.7555 159.198C25.0047 159.337 26.18 157.995 26.3806 156.199Z" fill="#E6E6E6"/>
<path d="M43.4124 149.8C43.613 148.005 42.763 146.436 41.5138 146.296C40.2647 146.157 39.0893 147.499 38.8887 149.295C38.688 151.091 39.538 152.66 40.7872 152.799C42.0364 152.939 43.2117 151.596 43.4124 149.8Z" fill="#FF6584"/>
<path d="M22.43 132.514C22.6306 130.718 21.7806 129.15 20.5314 129.01C19.2822 128.87 18.1069 130.213 17.9063 132.009C17.7056 133.804 18.5556 135.373 19.8048 135.513C21.054 135.652 22.2293 134.31 22.43 132.514Z" fill="#3F3D56"/>
<path d="M202.958 7.74103C203.446 5.81312 201.596 3.6809 198.824 2.97858C196.053 2.27625 193.41 3.26978 192.922 5.19769C192.433 7.1256 194.284 9.25782 197.055 9.96015C199.826 10.6625 202.469 9.66894 202.958 7.74103Z" fill="white"/>
<path d="M169.114 7.52277C169.603 5.59486 167.752 3.46264 164.981 2.76032C162.209 2.05799 159.567 3.05152 159.078 4.97943C158.589 6.90734 160.44 9.03956 163.211 9.74189C165.983 10.4442 168.625 9.45068 169.114 7.52277Z" fill="#3F3D56"/>
<path d="M209.309 35.8194C209.797 33.8915 207.947 31.7593 205.175 31.0569C202.404 30.3546 199.761 31.3482 199.273 33.2761C198.784 35.204 200.635 37.3362 203.406 38.0385C206.178 38.7408 208.82 37.7473 209.309 35.8194Z" fill="#FF6584"/>
<path d="M217.198 46.4072C217.399 44.6115 216.549 43.0426 215.299 42.9031C214.05 42.7635 212.875 44.106 212.674 45.9017C212.474 47.6974 213.324 49.2662 214.573 49.4058C215.822 49.5454 216.997 48.2029 217.198 46.4072Z" fill="#E6E6E6"/>
<path d="M219.981 67.6149C220.182 65.8192 219.332 64.2503 218.083 64.1108C216.834 63.9712 215.658 65.3137 215.458 67.1094C215.257 68.9051 216.107 70.474 217.356 70.6136C218.605 70.7532 219.781 69.4106 219.981 67.6149Z" fill="#3F3D56"/>
<path d="M185.381 27.1992C185.581 25.4035 184.731 23.8346 183.482 23.6951C182.233 23.5555 181.058 24.898 180.857 26.6937C180.656 28.4894 181.506 30.0582 182.755 30.1978C184.005 30.3374 185.18 28.9948 185.381 27.1992Z" fill="#E6E6E6"/>
<path d="M202.412 20.8005C202.613 19.0048 201.763 17.436 200.514 17.2964C199.265 17.1568 198.089 18.4993 197.889 20.295C197.688 22.0907 198.538 23.6595 199.787 23.7991C201.036 23.9387 202.212 22.5962 202.412 20.8005Z" fill="#FF6584"/>
<path d="M181.43 3.5141C181.631 1.71842 180.781 0.149579 179.531 0.00999821C178.282 -0.129582 177.107 1.21295 176.906 3.00864C176.706 4.80432 177.556 6.37316 178.805 6.51274C180.054 6.65232 181.229 5.30979 181.43 3.5141Z" fill="#3F3D56"/>
<path d="M245.446 560.94C245.91 560.962 246.37 560.84 246.764 560.591C247.157 560.342 247.464 559.978 247.643 559.549C247.823 559.12 247.866 558.645 247.767 558.191C247.668 557.736 247.432 557.323 247.09 557.007L246.935 556.389C246.955 556.339 246.976 556.29 246.997 556.24C247.465 555.134 248.249 554.191 249.252 553.53C250.254 552.868 251.43 552.518 252.631 552.522C253.832 552.527 255.005 552.886 256.003 553.555C257 554.224 257.778 555.173 258.238 556.282C260.077 560.71 262.417 565.146 262.994 569.828C263.248 571.898 263.14 573.996 262.677 576.029C266.996 566.609 269.238 556.37 269.252 546.008C269.253 543.407 269.109 540.809 268.82 538.225C268.581 536.106 268.249 534.003 267.825 531.914C265.51 520.583 260.541 509.963 253.325 500.925C249.832 499.019 247.008 496.089 245.232 492.528C244.588 491.249 244.134 489.882 243.882 488.472C244.276 488.524 245.367 482.524 245.07 482.155C245.619 481.322 246.602 480.908 247.202 480.095C250.184 476.052 254.293 476.758 256.438 482.252C261.02 484.565 261.065 488.4 258.253 492.089C256.464 494.436 256.218 497.612 254.649 500.124C254.81 500.331 254.978 500.531 255.14 500.738C258.091 504.533 260.664 508.609 262.821 512.906C262.296 508.092 262.922 503.222 264.647 498.697C266.395 494.479 269.672 490.928 272.558 487.282C273.321 486.302 274.357 485.571 275.536 485.181C276.715 484.79 277.982 484.758 279.179 485.088C280.376 485.418 281.449 486.095 282.261 487.035C283.073 487.974 283.588 489.133 283.742 490.365C283.748 490.419 283.753 490.472 283.759 490.526C283.33 490.768 282.911 491.025 282.5 491.296C281.985 491.641 281.585 492.133 281.354 492.708C281.123 493.284 281.071 493.916 281.205 494.521C281.339 495.127 281.653 495.678 282.106 496.102C282.558 496.526 283.128 496.803 283.741 496.898L283.804 496.908C283.651 498.452 283.382 499.983 282.997 501.487C286.699 515.803 278.707 521.017 267.295 521.251C267.043 521.38 266.798 521.509 266.546 521.632C268.713 527.773 270.072 534.169 270.589 540.66C270.882 544.489 270.865 548.336 270.538 552.163L270.557 552.028C271.384 547.772 273.654 543.933 276.984 541.157C281.929 537.095 288.916 535.599 294.252 532.333C294.819 531.969 295.478 531.775 296.152 531.773C296.826 531.771 297.486 531.962 298.055 532.324C298.624 532.685 299.077 533.201 299.362 533.812C299.647 534.423 299.752 535.102 299.663 535.77L299.641 535.913C298.846 536.237 298.072 536.61 297.323 537.03C296.894 537.272 296.474 537.528 296.064 537.8C295.548 538.144 295.149 538.637 294.918 539.212C294.686 539.788 294.635 540.42 294.769 541.025C294.903 541.631 295.217 542.182 295.669 542.606C296.122 543.03 296.692 543.307 297.305 543.402L297.368 543.411C297.413 543.418 297.452 543.424 297.497 543.431C296.138 546.676 294.231 549.662 291.858 552.26C289.544 564.757 279.602 565.943 268.968 562.304H268.962C267.795 567.374 266.104 572.309 263.917 577.03H245.897C245.832 576.83 245.774 576.623 245.716 576.423C247.384 576.527 249.059 576.428 250.703 576.126C249.366 574.485 248.029 572.832 246.692 571.191C246.662 571.16 246.634 571.128 246.607 571.094C245.929 570.254 245.245 569.421 244.567 568.582L244.566 568.581C244.53 566.007 244.825 563.439 245.445 560.941L245.446 560.94Z" fill="#F2F2F2"/>
<path d="M43.894 577.083C43.8936 577.24 43.924 577.395 43.9837 577.539C44.0433 577.684 44.1309 577.815 44.2416 577.926C44.3522 578.036 44.4836 578.124 44.6281 578.184C44.7727 578.243 44.9277 578.274 45.0841 578.273H298.374C298.69 578.273 298.992 578.148 299.216 577.925C299.439 577.702 299.564 577.399 299.564 577.083C299.564 576.768 299.439 576.465 299.216 576.242C298.992 576.019 298.69 575.893 298.374 575.893H45.0841C44.9277 575.893 44.7727 575.923 44.6281 575.983C44.4836 576.043 44.3522 576.13 44.2416 576.241C44.131 576.351 44.0433 576.483 43.9837 576.627C43.924 576.772 43.8936 576.927 43.894 577.083Z" fill="#CCCCCC"/>
<path d="M316.806 137.681C318.036 135.838 320.529 135.345 322.367 136.582L344.284 151.335C346.076 152.542 346.587 154.953 345.437 156.782L338.758 167.407C337.533 169.356 334.92 169.872 333.047 168.534L311.259 152.972C309.501 151.716 309.057 149.293 310.256 147.496L316.806 137.681Z" fill="white"/>
</g>
<defs>
<clipPath id="clip0_313_327">
<rect width="356.357" height="578.273" fill="white"/>
</clipPath>
</defs>
</svg>
