<svg width="732" height="630" viewBox="0 0 732 630" fill="none" xmlns="http://www.w3.org/2000/svg">
<g clip-path="url(#clip0_314_427)">
<path d="M304.106 546.981L312.091 520.976C302.483 510.402 290.44 502.334 277.007 497.47C290.131 519.214 277.414 547.578 282.713 572.416C284.426 580.15 287.856 587.4 292.751 593.628C297.646 599.856 303.88 604.903 310.99 608.394L323.108 623.408C329.46 612.309 333.331 599.966 334.453 587.228C335.576 574.489 333.923 561.659 329.61 549.621C327.123 542.892 323.799 536.502 319.715 530.603C312.515 539.068 304.106 546.981 304.106 546.981Z" fill="#F2F2F2"/>
<path d="M260.201 550.303L255.75 523.467C242.435 518.288 228.058 516.437 213.865 518.075C235.309 531.683 236.576 562.742 252.397 582.61C257.379 588.769 263.683 593.727 270.842 597.119C278 600.51 285.831 602.247 293.752 602.201L311.293 610.234C312.029 597.468 309.988 584.694 305.312 572.792C300.636 560.89 293.435 550.143 284.205 541.292C278.978 536.378 273.153 532.142 266.868 528.684C264.198 539.471 260.201 550.303 260.201 550.303Z" fill="#F2F2F2"/>
<path d="M521.537 616.734L509.237 616.733L503.386 569.293L521.539 569.294L521.537 616.734Z" fill="#FFB6B6"/>
<path d="M524.674 628.656L485.016 628.655V628.153C485.016 624.059 486.642 620.133 489.537 617.238C492.432 614.344 496.358 612.717 500.452 612.717H500.453L507.697 607.221L521.212 612.718L524.674 612.718L524.674 628.656Z" fill="#2F2E41"/>
<path d="M720.217 571.872L711.831 580.869L673.137 552.804L685.514 539.526L720.217 571.872Z" fill="#FFB6B6"/>
<path d="M731.077 577.706L704.037 606.716L703.67 606.374C700.675 603.583 698.912 599.716 698.768 595.625C698.624 591.534 700.111 587.553 702.902 584.558L702.903 584.557L703.822 575.511L717.058 569.371L719.418 566.839L731.077 577.706Z" fill="#2F2E41"/>
<path d="M702.018 545.21L689.018 572.4L609.188 519.545L597.575 503.721L559.496 451.839L544.018 476.4L533.247 502.075C529.737 504.364 526.779 507.405 524.587 510.977C522.396 514.549 521.024 518.563 520.573 522.729L520.08 527.274L526.886 588.457L501.018 596.4L486.161 514.21L491.018 496.4L496.018 471.4L521.191 392.4H588.556L627.193 474.642L630.018 491.4L640.973 503.972L702.018 545.21Z" fill="#2F2E41"/>
<path d="M562.021 263.148L573.361 271.783L587.037 275.986C587.037 275.986 592.691 355.514 597.786 360.608C602.88 365.703 598.285 365.84 599.309 372.457C600.333 379.075 602.821 392.641 602.821 392.641C568.434 410.844 538.788 411.332 514.976 390.032C514.671 388.714 514.826 387.332 515.414 386.115C516.003 384.897 516.99 383.917 518.212 383.337C522.644 380.986 514.126 370.01 517.748 368.175C521.37 366.339 516.276 350.42 516.276 350.42L519.618 317.204L516.977 311.894L523.421 279.406L534.601 275.323L539.067 264.563L562.021 263.148Z" fill="#5F59E1"/>
<path d="M569.125 404.497C569.074 403.06 569.339 401.631 569.901 400.308C570.462 398.985 571.307 397.801 572.376 396.84C573.444 395.879 574.71 395.164 576.085 394.745C577.46 394.326 578.91 394.214 580.333 394.416L596.314 363.353L605.218 379.173L588.677 406.246C588.179 408.614 586.829 410.716 584.884 412.156C582.939 413.595 580.534 414.271 578.124 414.055C575.714 413.84 573.467 412.748 571.808 410.986C570.15 409.224 569.195 406.915 569.125 404.497H569.125Z" fill="#FFB6B6"/>
<path d="M596.04 396.898L630.318 343.77L630.205 343.526C630.076 343.246 622.313 326.481 614.792 311.126C613.634 308.761 612.481 306.43 611.363 304.198C610.881 303.234 610.405 302.291 609.937 301.368C606.778 295.14 604.018 289.992 602.371 287.547C598.727 282.019 593.301 277.903 586.995 275.884L586.837 275.843L586.685 275.906C583.601 277.207 581.052 279.521 579.459 282.466C577.866 285.41 577.324 288.81 577.923 292.103C580.896 307.991 587.521 322.97 597.276 335.858L602.833 343.183L583.521 385.168L596.04 396.898Z" fill="#5F59E1"/>
<path d="M478.167 193.252C479.111 194.336 479.805 195.613 480.202 196.994C480.599 198.376 480.688 199.827 480.463 201.247C480.238 202.666 479.705 204.019 478.901 205.21C478.096 206.401 477.041 207.401 475.808 208.14L482.954 242.335L466.075 235.652L461.877 204.205C460.773 202.052 460.497 199.568 461.102 197.226C461.706 194.883 463.149 192.843 465.157 191.493C467.165 190.143 469.598 189.576 471.996 189.9C474.394 190.225 476.589 191.417 478.167 193.252H478.167Z" fill="#FFB6B6"/>
<path d="M462.044 216.103L468.87 278.96L469.111 279.078C469.311 279.176 477.958 283.418 488.573 288.469C490.363 289.321 490.107 293.012 491.978 293.894C493.267 294.502 496.672 292.297 497.974 292.906C509.576 298.332 521.308 303.608 525.984 305.037C532.296 307.037 539.102 306.818 545.273 304.416L545.421 304.348L545.499 304.204C547.076 301.25 547.599 297.848 546.982 294.558C546.366 291.267 544.646 288.285 542.107 286.103C529.793 275.633 515.214 268.169 499.521 264.299L490.591 262.108L479.155 217.332L462.044 216.103Z" fill="#5F59E1"/>
<path d="M549.931 259.587C562.319 259.587 572.362 249.544 572.362 237.156C572.362 224.768 562.319 214.725 549.931 214.725C537.543 214.725 527.5 224.768 527.5 237.156C527.5 249.544 537.543 259.587 549.931 259.587Z" fill="#FFB6B6"/>
<path d="M527.661 222.125C529.506 216.759 538.688 213.036 553.575 212.519C568.462 212.001 572.237 229.545 572.237 229.545C582.175 237.606 561.626 259.19 560.631 258.412L561.078 254.357C561.819 247.64 564.964 242.4 560.964 235.4L557.123 235.444C552.162 236.398 547.202 237.352 542.241 238.305L548.114 233.134L547.948 232.878C545.45 234.179 542.731 235.005 539.932 235.312C536.775 235.498 533.324 234.242 531.812 231.465C531.409 230.701 531.162 229.865 531.087 229.004C526.83 230.705 524.884 235.953 524.884 235.953C524.884 235.953 525.816 227.492 527.661 222.125Z" fill="#2F2E41"/>
<path d="M90.3739 223.471C90.0696 223.085 89.7419 222.718 89.3926 222.372C89.4779 222.255 89.5633 222.127 89.6487 222.01L90.3739 223.471Z" fill="#2F2E41"/>
<path d="M94.7361 313.687C91.0669 320.204 83.7391 323.841 76.4754 325.622C68.3165 327.759 59.725 327.593 51.6548 325.142C50.6309 324.812 49.6069 324.428 48.6149 324.001C49.0918 322.734 49.4699 321.433 49.7456 320.108C50.1169 318.315 50.3027 316.488 50.3002 314.657C49.492 316.234 48.445 317.677 47.1963 318.935C46.233 319.947 45.139 320.825 43.9431 321.548C40.2338 319.297 37.0219 316.313 34.5034 312.78C34.6634 312.385 34.8234 311.991 34.9728 311.596C35.7473 309.535 36.3607 307.417 36.8073 305.26C37.4134 302.345 37.7172 299.374 37.714 296.397C36.3988 298.962 34.6932 301.309 32.6581 303.351C32.048 304.004 31.3998 304.62 30.7169 305.196C29.6594 301.985 29.2506 298.595 29.5142 295.224C29.7779 291.853 30.7088 288.568 32.2528 285.56C36.4767 277.752 44.6684 273.112 51.9642 268.067C59.2706 263.022 66.5771 256.195 67.1957 247.332C67.6117 241.348 64.8384 235.353 65.9477 229.465C66.4143 226.983 67.5532 224.675 69.2405 222.795C70.9278 220.915 73.0988 219.534 75.5168 218.802C77.9349 218.071 80.5074 218.017 82.954 218.646C85.4006 219.276 87.6276 220.565 89.3923 222.372C85.2537 228.239 81.1366 234.308 79.4619 241.284C77.7553 248.387 79.1526 256.718 84.7525 261.422C86.6724 263.043 89.0296 264.195 90.5123 266.222C92.4855 268.909 92.4962 272.493 92.8162 275.8C93.4561 282.232 95.5574 288.418 96.6881 294.786C97.8294 301.143 97.8933 308.044 94.7361 313.687Z" fill="#2F2E41"/>
<path d="M19.5186 578.195L29.2536 585.716L62.8976 551.747L48.5296 540.646L19.5186 578.195Z" fill="#A0616A"/>
<path d="M19.9331 570.846L36.0311 581.818L30.9367 588.411L37.7594 609.819C38.0965 610.877 38.0868 612.014 37.7318 613.066C37.3767 614.117 36.6948 615.027 35.7856 615.664C34.8765 616.3 33.7877 616.629 32.6782 616.603C31.5688 616.577 30.4967 616.197 29.6186 615.518L11.2982 601.362L13.1796 592.401L6.90749 597.97L0 592.632L19.9331 570.846Z" fill="#2F2E41"/>
<path d="M68.9072 242.421C68.9058 246.225 69.8381 249.97 71.6222 253.329C73.4064 256.688 75.9878 259.558 79.1399 261.687C82.2921 263.815 85.9185 265.137 89.7009 265.537C93.4833 265.937 97.306 265.402 100.833 263.98C104.361 262.557 107.485 260.29 109.932 257.379C112.379 254.467 114.074 250.999 114.868 247.279C115.662 243.559 115.53 239.702 114.485 236.045C113.44 232.388 111.513 229.043 108.873 226.305L108.762 226.193C108.576 225.998 108.39 225.803 108.195 225.617C108.194 225.617 108.192 225.617 108.191 225.616C108.19 225.616 108.189 225.615 108.188 225.614C108.187 225.613 108.187 225.612 108.186 225.611C108.186 225.61 108.185 225.609 108.186 225.607C107.944 225.384 107.702 225.161 107.451 224.948C103.362 221.36 97.6138 217.466 91.7491 217.466C78.9134 217.466 68.9072 229.585 68.9072 242.421Z" fill="#2F2E41"/>
<path d="M201.35 230.489C201.461 231.728 201.299 232.976 200.875 234.146C200.452 235.316 199.777 236.379 198.898 237.26C198.019 238.141 196.958 238.819 195.789 239.245C194.62 239.672 193.372 239.837 192.133 239.729L134.594 291.68L124.692 276.041L184.364 229.892C184.684 227.822 185.752 225.941 187.366 224.605C188.98 223.27 191.028 222.573 193.122 222.646C195.215 222.72 197.209 223.559 198.726 225.004C200.242 226.449 201.176 228.401 201.35 230.488V230.489Z" fill="#A0616A"/>
<path d="M110.003 307.361C110.003 307.361 112.144 311.315 119.457 305.209C125.311 300.322 153.36 279.102 159.402 270.407C160.782 270.953 162.304 271.025 163.73 270.612C165.155 270.198 166.402 269.321 167.274 268.121L150.718 253.621C145.765 254.191 145.871 257.519 146.387 259.408L133.898 265.067L101.648 285.676L108.405 304.53L110.003 307.361Z" fill="#5F59E1"/>
<path d="M78.7613 343.789L77.5553 349.532L76.5312 370.716L121.615 373.194L120.215 340.612L115.845 333.432L78.7613 343.789Z" fill="#A0616A"/>
<path d="M97.8682 267.282C108.629 267.282 117.353 258.558 117.353 247.797C117.353 237.036 108.629 228.313 97.8682 228.313C87.1073 228.313 78.3838 237.036 78.3838 247.797C78.3838 258.558 87.1073 267.282 97.8682 267.282Z" fill="#A0616A"/>
<path d="M63.2761 319.665L63.1563 303.468C63.1535 297.641 65.1256 291.984 68.7509 287.421C72.3761 282.859 77.4405 279.659 83.118 278.344L83.1915 278.327L87.0443 273.136L102.698 274.702L105.567 280.566L116.909 287.319L121.276 301.358C123.171 302.621 124.785 304.259 126.019 306.172C127.253 308.085 128.081 310.231 128.45 312.477C129.933 321.947 123.302 331.423 122.513 332.51L120.481 343.955L76.271 351.756L75.9121 351.801L63.2761 319.665Z" fill="#5F59E1"/>
<path d="M121.711 244.323C119.438 245.763 117.08 247.063 114.65 248.217C112.183 249.402 109.603 250.334 106.948 251.001C106.189 249.334 105.26 247.751 104.175 246.275C104.454 248.024 104.461 249.805 104.197 251.555C99.7971 252.265 95.2912 251.895 91.0663 250.478L87.3971 244.324L87.1198 251.193C84.0799 251.747 81.0506 252.27 78.0107 252.814C77.8294 252.835 77.6481 252.878 77.4774 252.91C75.5894 244.398 78.2667 235.022 84.2185 229.348C87.1736 226.56 90.8598 224.669 94.848 223.895C98.8362 223.121 102.962 223.495 106.746 224.975C107.226 225.167 107.716 225.38 108.186 225.604C108.186 225.606 108.186 225.607 108.186 225.608C108.187 225.61 108.188 225.611 108.189 225.612C108.19 225.613 108.191 225.614 108.192 225.614C108.194 225.615 108.195 225.615 108.196 225.615C108.474 225.753 108.708 226.084 109.018 226.052C122.329 224.569 122.756 234.894 121.711 244.323Z" fill="#2F2E41"/>
<path d="M89.2969 553.071L99.0469 560.572L132.623 526.535L118.233 515.464L89.2969 553.071Z" fill="#A0616A"/>
<path d="M90.5805 546.401L106.701 557.34L101.62 563.943L108.485 585.338C108.825 586.395 108.817 587.532 108.464 588.584C108.111 589.637 107.431 590.548 106.523 591.187C105.616 591.825 104.527 592.156 103.418 592.132C102.308 592.108 101.236 591.73 100.356 591.054L82.0072 576.935L83.8705 567.969L77.6096 573.551L70.6914 568.227L90.5805 546.401Z" fill="#2F2E41"/>
<path d="M57.6586 511.529L57.6581 511.402L62.279 503.439L57.5605 493.074L57.4189 466.443L58.1838 462.445C59.2126 457.068 58.9133 451.522 57.3118 446.287L57.2256 430.077C57.0599 426.016 63.3506 422.444 61.8836 419.059C48.0174 387.06 76.0432 362.649 76.2325 362.453L76.8053 361.858L79.9126 364.211L82.8702 364.215L122.782 371.488L123.07 372.025C124.64 374.969 127.67 385.119 127.849 389.711C129.838 392.014 152.496 418.233 154.51 420.054C168.121 432.369 175.914 452.753 179.348 463.807C180.2 466.539 180.372 469.438 179.848 472.252C179.324 475.065 178.12 477.708 176.341 479.95L124.815 536.389L110.949 523.589L138.829 472.784L136.819 467.629C133.211 466.964 129.947 465.067 127.582 462.263L121.936 455.562C120.373 453.712 119.38 451.448 119.077 449.045L115.653 448.633L103.389 435.757L94.8808 512.809L92.5676 518.896L52.2839 566.254L35.2178 555.588L57.6586 511.529Z" fill="#2F2E41"/>
<path d="M51.5063 180.677C50.7323 181.651 50.1814 182.783 49.8924 183.993C49.6033 185.204 49.5832 186.462 49.8333 187.681C50.0834 188.9 50.5977 190.049 51.34 191.048C52.0823 192.047 53.0346 192.87 54.1297 193.461L41.3203 231.383L51.7799 271.571L68.646 263.946L58.2383 233.633L66.0249 189.512C66.8955 187.606 67.0368 185.448 66.4221 183.445C65.8075 181.442 64.4796 179.734 62.6899 178.645C60.9003 177.556 58.7734 177.162 56.7122 177.536C54.651 177.91 52.7987 179.028 51.5063 180.677Z" fill="#A0616A"/>
<path d="M66.9454 304.683C66.9454 304.683 62.984 306.81 60.229 297.691C58.0234 290.39 43.0135 250.75 42.743 240.165C41.2898 239.864 39.9782 239.087 39.0148 237.958C38.0514 236.829 37.491 235.412 37.4219 233.929L59.2221 230.913C63.0475 234.111 61.1302 236.833 59.661 238.128L67.086 250.705L82.6053 284.658L69.8361 303.196L66.9454 304.683Z" fill="#5F59E1"/>
<path d="M78.0068 252.812C80.2456 246.061 84.2599 240.036 89.6287 235.371C94.9975 230.705 101.523 227.57 108.521 226.295C108.548 226.286 108.641 226.249 108.762 226.193C108.836 226.146 108.929 226.1 109.022 226.054C108.744 225.896 108.474 225.756 108.195 225.617C108.194 225.617 108.193 225.616 108.192 225.616C108.19 225.615 108.189 225.615 108.189 225.614C108.188 225.613 108.187 225.612 108.187 225.611C108.186 225.61 108.186 225.609 108.186 225.607C107.944 225.384 107.703 225.161 107.452 224.947L106.745 224.975C106.745 224.975 81.9198 221.044 78.0068 252.812Z" fill="#FD6584"/>
<path d="M398.344 469.937C401.054 465.864 399.45 460.035 394.762 456.916C390.075 453.797 384.078 454.57 381.369 458.643C378.659 462.715 380.263 468.545 384.951 471.664C389.638 474.782 395.635 474.009 398.344 469.937Z" fill="#F2F2F2"/>
<path d="M343.344 317.937C346.054 313.864 344.45 308.035 339.762 304.916C335.075 301.797 329.078 302.57 326.369 306.643C323.659 310.715 325.263 316.545 329.951 319.664C334.638 322.782 340.635 322.009 343.344 317.937Z" fill="#F2F2F2"/>
<path d="M573.344 551.937C576.054 547.864 574.45 542.035 569.762 538.916C565.075 535.797 559.078 536.57 556.369 540.643C553.659 544.715 555.263 550.545 559.951 553.664C564.638 556.782 570.635 556.009 573.344 551.937Z" fill="#F2F2F2"/>
<path d="M108.344 62.9367C111.054 58.8643 109.45 53.0346 104.762 49.9159C100.075 46.7971 94.0782 47.5703 91.3687 51.6428C88.6593 55.7152 90.263 61.5448 94.9507 64.6636C99.6384 67.7823 105.635 67.0092 108.344 62.9367Z" fill="#F2F2F2"/>
<path d="M325.344 14.9367C328.054 10.8642 326.45 5.03459 321.762 1.91585C317.075 -1.20289 311.078 -0.429757 308.369 3.64271C305.659 7.71517 307.263 13.5448 311.951 16.6636C316.638 19.7823 322.635 19.0091 325.344 14.9367Z" fill="#F2F2F2"/>
<path d="M222.644 417.651C225.354 413.579 223.75 407.749 219.062 404.63C214.375 401.512 208.378 402.285 205.669 406.357C202.959 410.43 204.563 416.259 209.251 419.378C213.938 422.497 219.935 421.724 222.644 417.651Z" fill="#E6E6E6"/>
<path d="M670.267 629.614H19.9734C19.6582 629.613 19.3562 629.487 19.1337 629.264C18.9111 629.041 18.7861 628.739 18.7861 628.423C18.7861 628.108 18.9111 627.806 19.1337 627.583C19.3562 627.359 19.6582 627.234 19.9734 627.233H670.267C670.583 627.233 670.886 627.358 671.109 627.581C671.333 627.805 671.458 628.108 671.458 628.423C671.458 628.739 671.333 629.042 671.109 629.265C670.886 629.489 670.583 629.614 670.267 629.614Z" fill="#CCCCCC"/>
<path d="M180.536 224.994L157.642 204.028C152.285 154.765 149.277 122.613 144.112 87.3985C139.505 55.991 144.146 46.2589 159.151 37.2957L463.461 4.40523C486.407 9.01301 489.225 16.3624 491.846 54.5458C494.466 92.7293 501.227 122.285 505.259 171.162L486.76 189.527L180.536 224.994Z" fill="white"/>
<path d="M505.244 163.388L505.322 164.106C506.042 170.7 503.975 177.325 499.574 182.523C495.174 187.722 488.801 191.068 481.858 191.826L186.33 224.142C179.388 224.9 172.445 223.009 167.027 218.884C161.609 214.76 158.159 208.739 157.438 202.147L157.359 201.429L505.244 163.388Z" fill="#F2F2F2"/>
<path d="M206.23 76.3398C185.421 83.6844 164.543 70.177 159.613 56.0672L161.072 55.6522C178.659 49.9052 200.09 59.9275 206.23 76.3398Z" fill="#5F59E1"/>
<path d="M423.242 157.467C418.471 157.989 414.53 157.056 411.526 154.695C404.737 149.358 403.855 137.737 403.146 128.399C402.94 125.682 402.745 123.116 402.426 120.984L402.421 120.951C401.985 116.765 403.307 112.565 406.098 109.265C408.889 105.964 412.925 103.83 417.329 103.326L456.882 99.0005C461.646 98.4795 465.584 99.4105 468.585 101.768C475.373 107.1 476.259 118.718 476.971 128.054C477.179 130.776 477.375 133.347 477.697 135.483C478.14 139.676 476.821 143.883 474.029 147.19C471.236 150.498 467.195 152.637 462.785 153.143L423.242 157.467ZM404.082 120.759C404.408 122.942 404.605 125.529 404.812 128.267C405.498 137.306 406.352 148.556 412.599 153.466C415.28 155.574 418.705 156.366 423.069 155.889L462.61 151.565C466.576 151.111 470.211 149.19 472.726 146.218C475.24 143.246 476.431 139.464 476.039 135.693C475.713 133.535 475.515 130.937 475.305 128.186C474.616 119.149 473.758 107.903 467.513 102.997C464.834 100.893 461.413 100.102 457.054 100.578L417.504 104.903C413.542 105.358 409.91 107.277 407.398 110.245C404.885 113.214 403.693 116.991 404.082 120.759Z" fill="#3F3D56"/>
<path d="M197.649 78.747C190.709 79.4655 183.718 78.3202 177.471 75.4413C168.329 71.3125 160.956 63.9048 158.232 56.1102L157.959 55.3289L160.236 54.6807C178.087 48.8538 200.099 58.9338 206.428 75.8431L206.705 76.5845L205.924 76.8606C203.252 77.8049 200.474 78.4384 197.649 78.747ZM160.106 56.3707C162.901 63.4887 169.756 70.1912 178.201 74.0054C186.381 77.8283 195.851 78.4168 204.562 75.6433C198.158 59.9452 177.521 50.6947 160.748 56.1875L160.106 56.3707Z" fill="#3F3D56"/>
<path d="M184.408 170.916C178.973 171.51 174.305 169.683 171.252 165.753C169.531 163.461 168.465 160.779 168.157 157.967C167.848 155.154 168.308 152.305 169.491 149.694C171.656 145.121 175.922 142.302 181.514 141.773L234.215 136.01C239.772 135.334 244.549 137.154 247.653 141.156C249.373 143.449 250.437 146.13 250.745 148.943C251.052 151.755 250.592 154.604 249.408 157.214C247.241 161.782 242.969 164.562 237.386 165.121L184.684 170.884C184.592 170.895 184.5 170.906 184.408 170.916ZM181.428 143.377C176.581 143.907 172.888 146.37 171.013 150.333C169.947 152.685 169.533 155.251 169.811 157.785C170.089 160.319 171.049 162.735 172.6 164.8C175.332 168.318 179.551 169.923 184.499 169.307L237.226 163.542C242.195 163.074 245.98 160.595 247.886 156.574C248.953 154.223 249.367 151.657 249.091 149.123C248.814 146.589 247.854 144.173 246.305 142.108C243.572 138.584 239.341 136.989 234.399 137.587L181.669 143.353C181.589 143.36 181.508 143.368 181.428 143.377L181.428 143.377Z" fill="#3F3D56"/>
<path d="M432.897 120.607L416.284 122.424C415.182 122.544 414.08 122.244 413.22 121.589C412.361 120.935 411.813 119.979 411.699 118.933C411.584 117.887 411.912 116.836 412.61 116.011C413.308 115.186 414.319 114.655 415.421 114.535L432.034 112.718C433.136 112.598 434.238 112.898 435.098 113.552C435.957 114.207 436.505 115.162 436.619 116.208C436.733 117.254 436.406 118.306 435.707 119.13C435.009 119.955 433.998 120.486 432.897 120.607Z" fill="#5F59E1"/>
<path d="M434.277 133.229L417.663 135.045C416.562 135.166 415.46 134.866 414.6 134.211C413.74 133.557 413.193 132.601 413.079 131.555C412.964 130.509 413.292 129.458 413.99 128.633C414.688 127.808 415.699 127.277 416.801 127.157L433.414 125.34C434.516 125.22 435.618 125.52 436.477 126.174C437.337 126.829 437.884 127.784 437.999 128.83C438.113 129.876 437.785 130.927 437.087 131.752C436.389 132.577 435.378 133.108 434.277 133.229Z" fill="#5F59E1"/>
<path d="M435.657 145.851L419.043 147.668C417.942 147.788 416.84 147.488 415.98 146.834C415.12 146.179 414.573 145.224 414.459 144.178C414.344 143.131 414.672 142.08 415.37 141.255C416.068 140.431 417.079 139.899 418.181 139.779L434.794 137.962C435.896 137.842 436.997 138.142 437.857 138.796C438.717 139.451 439.264 140.406 439.379 141.453C439.493 142.499 439.165 143.55 438.467 144.375C437.769 145.2 436.758 145.731 435.657 145.851Z" fill="#5F59E1"/>
<path d="M461.97 117.428L445.357 119.245C444.255 119.365 443.153 119.065 442.294 118.41C441.434 117.756 440.887 116.801 440.772 115.754C440.658 114.708 440.986 113.657 441.684 112.832C442.382 112.007 443.393 111.476 444.494 111.356L461.108 109.539C462.209 109.419 463.311 109.719 464.171 110.373C465.031 111.028 465.578 111.983 465.692 113.029C465.807 114.076 465.479 115.127 464.781 115.952C464.083 116.776 463.072 117.307 461.97 117.428Z" fill="#5F59E1"/>
<path d="M463.351 130.05L446.738 131.866C445.636 131.987 444.534 131.687 443.674 131.032C442.815 130.378 442.267 129.422 442.153 128.376C442.039 127.33 442.366 126.279 443.065 125.454C443.763 124.629 444.773 124.098 445.875 123.977L462.488 122.161C463.59 122.04 464.692 122.34 465.552 122.995C466.411 123.649 466.959 124.605 467.073 125.651C467.187 126.697 466.86 127.748 466.162 128.573C465.464 129.398 464.453 129.929 463.351 130.05Z" fill="#5F59E1"/>
<path d="M464.731 142.672L448.118 144.488C447.016 144.609 445.914 144.309 445.054 143.654C444.195 143 443.647 142.044 443.533 140.998C443.418 139.952 443.746 138.901 444.444 138.076C445.142 137.251 446.153 136.72 447.255 136.6L463.868 134.783C464.97 134.663 466.072 134.963 466.932 135.617C467.791 136.272 468.339 137.227 468.453 138.273C468.567 139.319 468.239 140.371 467.541 141.195C466.843 142.02 465.832 142.551 464.731 142.672Z" fill="#5F59E1"/>
<path d="M493.637 57.2385L145.752 95.2793L145.924 96.857L493.809 58.8163L493.637 57.2385Z" fill="#3F3D56"/>
<path d="M480.679 192.418L186.621 224.573C179.353 225.36 172.085 223.377 166.412 219.058C160.74 214.74 157.125 208.439 156.362 201.538L141.525 65.8523C140.779 58.9495 142.946 52.0164 147.551 46.5741C152.157 41.1317 158.824 37.6246 166.091 36.8221L460.148 4.66729C467.417 3.88038 474.684 5.86371 480.357 10.1822C486.03 14.5006 489.644 20.8015 490.407 27.7025L505.244 163.388C505.991 170.291 503.823 177.224 499.218 182.666C494.613 188.109 487.945 191.616 480.679 192.418ZM166.263 38.3998C159.437 39.1537 153.174 42.4484 148.847 47.5608C144.521 52.6733 142.485 59.1862 143.187 65.6706L158.024 201.356C158.74 207.839 162.136 213.758 167.465 217.815C172.793 221.872 179.621 223.735 186.449 222.995L480.506 190.841C487.332 190.087 493.596 186.792 497.922 181.68C502.248 176.567 504.284 170.054 503.583 163.57L488.746 27.8842C488.029 21.4014 484.634 15.4824 479.305 11.4257C473.976 7.36899 467.149 5.50584 460.321 6.24503L166.263 38.3998Z" fill="black"/>
</g>
<defs>
<clipPath id="clip0_314_427">
<rect width="731.077" height="629.614" fill="white"/>
</clipPath>
</defs>
</svg>
