<svg width="22" height="20" viewBox="0 0 22 20" fill="none" xmlns="http://www.w3.org/2000/svg">
<path d="M1 5C1 3.11438 1 2.17157 1.58579 1.58579C2.17157 1 3.11438 1 5 1H17C18.8856 1 19.8284 1 20.4142 1.58579C21 2.17157 21 3.11438 21 5V5C21 5.94281 21 6.41421 20.7071 6.70711C20.4142 7 19.9428 7 19 7H3C2.05719 7 1.58579 7 1.29289 6.70711C1 6.41421 1 5.94281 1 5V5Z" stroke="#989EA5"/>
<path d="M3.87868 18.1213L3.52513 18.4749L3.52513 18.4749L3.87868 18.1213ZM3 9V8.5H2.5V9H3ZM19 9H19.5V8.5H19V9ZM18.1213 18.1213L18.4749 18.4749L18.4749 18.4749L18.1213 18.1213ZM2.5 13C2.5 14.4001 2.49894 15.5004 2.61429 16.3584C2.73158 17.2308 2.9774 17.9271 3.52513 18.4749L4.23223 17.7678C3.90128 17.4368 3.70776 16.9867 3.60538 16.2252C3.50106 15.4493 3.5 14.4283 3.5 13H2.5ZM2.5 9V13H3.5V9H2.5ZM19 8.5H3V9.5H19V8.5ZM19.5 13V9H18.5V13H19.5ZM18.4749 18.4749C19.0226 17.9271 19.2684 17.2308 19.3857 16.3584C19.5011 15.5004 19.5 14.4001 19.5 13H18.5C18.5 14.4283 18.4989 15.4493 18.3946 16.2252C18.2922 16.9867 18.0987 17.4368 17.7678 17.7678L18.4749 18.4749ZM13 19.5C14.4001 19.5 15.5004 19.5011 16.3584 19.3857C17.2308 19.2684 17.9271 19.0226 18.4749 18.4749L17.7678 17.7678C17.4368 18.0987 16.9867 18.2922 16.2252 18.3946C15.4493 18.4989 14.4283 18.5 13 18.5V19.5ZM9 19.5H13V18.5H9V19.5ZM3.52513 18.4749C4.07285 19.0226 4.76917 19.2684 5.64156 19.3857C6.49956 19.5011 7.59992 19.5 9 19.5V18.5C7.57165 18.5 6.55069 18.4989 5.77481 18.3946C5.01331 18.2922 4.56319 18.0987 4.23223 17.7678L3.52513 18.4749ZM8.5 14C8.5 13.7239 8.72386 13.5 9 13.5V12.5C8.17157 12.5 7.5 13.1716 7.5 14H8.5ZM9 14.5C8.72386 14.5 8.5 14.2761 8.5 14H7.5C7.5 14.8284 8.17157 15.5 9 15.5V14.5ZM13 14.5H9V15.5H13V14.5ZM13.5 14C13.5 14.2761 13.2761 14.5 13 14.5V15.5C13.8284 15.5 14.5 14.8284 14.5 14H13.5ZM13 13.5C13.2761 13.5 13.5 13.7239 13.5 14H14.5C14.5 13.1716 13.8284 12.5 13 12.5V13.5ZM9 13.5H13V12.5H9V13.5Z" fill="#989EA5"/>
</svg>
