<svg width="18" height="18" viewBox="0 0 18 18" fill="none" xmlns="http://www.w3.org/2000/svg">
<path fill-rule="evenodd" clip-rule="evenodd" d="M15.75 9C15.75 12.7279 12.7279 15.75 9 15.75C5.27208 15.75 2.25 12.7279 2.25 9C2.25 5.27208 5.27208 2.25 9 2.25C12.7279 2.25 15.75 5.27208 15.75 9ZM9 13.75C8.44772 13.75 8 13.3023 8 12.75V10H5.25C4.69772 10 4.25 9.55228 4.25 9C4.25 8.44772 4.69772 8 5.25 8H8V5.25C8 4.69772 8.44772 4.25 9 4.25C9.55228 4.25 10 4.69772 10 5.25V8H12.75C13.3023 8 13.75 8.44772 13.75 9C13.75 9.55228 13.3023 10 12.75 10H10V12.75C10 13.3023 9.55228 13.75 9 13.75Z" fill="white"/>
</svg>
