<svg width="26" height="24" viewBox="0 0 26 24" fill="none" xmlns="http://www.w3.org/2000/svg">
<path d="M12.974 2C7.2033 2 2.50557 6.47838 2.50347 11.9844C2.50243 13.7444 2.98557 15.4626 3.90159 16.9766L2.48096 22L7.96494 20.7637C9.49408 21.5597 11.2155 21.9775 12.9679 21.9785H12.972C18.7416 21.9785 23.4373 17.4991 23.4405 11.9941C23.4425 9.32514 22.3548 6.81573 20.3781 4.92773C18.4014 3.04073 15.7745 2.001 12.974 2ZM12.972 4C15.2107 4.001 17.3145 4.8338 18.8961 6.3418C20.4776 7.8518 21.3464 9.85819 21.3443 11.9922C21.3422 16.3962 17.5877 19.9785 12.9699 19.9785C11.5728 19.9775 10.1889 19.6428 8.97003 19.0078L8.2638 18.6406L7.48389 18.8164L5.42049 19.2813L5.92405 17.4961L6.15127 16.6953L5.7173 15.9766C4.98575 14.7686 4.59858 13.3874 4.59963 11.9844C4.60172 7.58238 8.35728 4 12.972 4ZM9.26889 7.375C9.09386 7.375 8.81087 7.4375 8.57086 7.6875C8.33085 7.9365 7.65379 8.53958 7.65379 9.76758C7.65379 10.9956 8.59133 12.1826 8.72234 12.3496C8.8523 12.5156 10.532 15.1152 13.191 16.1152C15.4003 16.9462 15.8491 16.7822 16.3291 16.7402C16.8091 16.6992 17.8777 16.1377 18.0957 15.5547C18.3137 14.9717 18.3142 14.4702 18.2492 14.3672C18.1842 14.2632 18.0097 14.2012 17.7477 14.0762C17.4867 13.9512 16.2006 13.3486 15.9606 13.2656C15.7206 13.1826 15.5451 13.1406 15.3711 13.3906C15.1971 13.6406 14.6971 14.2012 14.5441 14.3672C14.3911 14.5342 14.2391 14.5566 13.9771 14.4316C13.715 14.3056 12.8726 14.0414 11.8727 13.1914C11.095 12.5304 10.5703 11.7148 10.4173 11.4648C10.2653 11.2158 10.4029 11.0791 10.534 10.9551C10.6513 10.8431 10.7939 10.6636 10.9249 10.5176C11.0549 10.3716 11.1 10.2676 11.187 10.1016C11.2739 9.93556 11.2294 9.78906 11.1644 9.66406C11.0995 9.53906 10.5906 8.3065 10.3579 7.8125C10.1619 7.3975 9.95493 7.38786 9.76837 7.38086C9.6164 7.37486 9.44287 7.375 9.26889 7.375Z" fill="white"/>
</svg>
