<svg width="19" height="22" viewBox="0 0 19 22" fill="none" xmlns="http://www.w3.org/2000/svg">
<path d="M3.75 1C2.2335 1 1 2.2335 1 3.75V17.5V17.75V18.25C1 19.7599 2.24011 21 3.75 21H16.75C16.8494 21.0014 16.9481 20.983 17.0403 20.946C17.1325 20.9089 17.2164 20.8539 17.2872 20.7841C17.358 20.7143 17.4142 20.6312 17.4526 20.5395C17.4909 20.4478 17.5107 20.3494 17.5107 20.25C17.5107 20.1506 17.4909 20.0522 17.4526 19.9605C17.4142 19.8688 17.358 19.7857 17.2872 19.7159C17.2164 19.6461 17.1325 19.5911 17.0403 19.554C16.9481 19.517 16.8494 19.4986 16.75 19.5H3.75C3.13662 19.5 2.63862 19.0762 2.52539 18.5H16.75C17.1645 18.5 17.5 18.1645 17.5 17.75V3.75C17.5 2.2335 16.2665 1 14.75 1H3.75ZM9.25 5C10.215 5 11 5.785 11 6.75C11 7.715 10.215 8.5 9.25 8.5C8.285 8.5 7.5 7.715 7.5 6.75C7.5 5.785 8.285 5 9.25 5ZM6.75 10.5H11.75C12.1635 10.5 12.5 10.8365 12.5 11.25V12.5C12.5 13.603 11.042 14.5 9.25 14.5C7.458 14.5 6 13.603 6 12.5V11.25C6 10.8365 6.3365 10.5 6.75 10.5Z" stroke="#989EA5"/>
</svg>
