<svg width="22" height="22" viewBox="0 0 22 22" fill="none" xmlns="http://www.w3.org/2000/svg">
<path d="M6.92 0.5H3.54V1.5H6.92V0.5ZM9.96 3.561C9.96 1.87911 8.61136 0.5 6.92 0.5V1.5C8.04864 1.5 8.96 2.42089 8.96 3.561H9.96ZM9.96 6.97V3.561H8.96V6.97H9.96ZM6.92 10.03C8.60997 10.03 9.96 8.6623 9.96 6.97H8.96C8.96 8.1177 8.05003 9.03 6.92 9.03V10.03ZM3.54 10.03H6.92V9.03H3.54V10.03ZM0.5 6.97C0.5 8.66358 1.86131 10.03 3.54 10.03V9.03C2.41869 9.03 1.5 8.11642 1.5 6.97H0.5ZM0.5 3.561V6.97H1.5V3.561H0.5ZM3.54 0.5C1.85991 0.5 0.5 1.87782 0.5 3.561H1.5C1.5 2.42218 2.42009 1.5 3.54 1.5V0.5ZM6.92 11.9697H3.54V12.9697H6.92V11.9697ZM9.96 15.0307C9.96 13.3387 8.61023 11.9697 6.92 11.9697V12.9697C8.04977 12.9697 8.96 13.8827 8.96 15.0307H9.96ZM9.96 18.4397V15.0307H8.96V18.4397H9.96ZM6.92 21.4997C8.61124 21.4997 9.96 20.1207 9.96 18.4397H8.96C8.96 19.5787 8.04876 20.4997 6.92 20.4997V21.4997ZM3.54 21.4997H6.92V20.4997H3.54V21.4997ZM0.5 18.4397C0.5 20.122 1.86004 21.4997 3.54 21.4997V20.4997C2.41996 20.4997 1.5 19.5774 1.5 18.4397H0.5ZM0.5 15.0307V18.4397H1.5V15.0307H0.5ZM3.54 11.9697C1.86105 11.9697 0.5 13.3374 0.5 15.0307H1.5C1.5 13.884 2.41895 12.9697 3.54 12.9697V11.9697ZM15.0801 1.5H18.4601V0.5H15.0801V1.5ZM13.0401 3.561C13.0401 2.42089 13.9515 1.5 15.0801 1.5V0.5C13.3887 0.5 12.0401 1.87911 12.0401 3.561H13.0401ZM13.0401 6.97V3.561H12.0401V6.97H13.0401ZM15.0801 9.03C13.9501 9.03 13.0401 8.1177 13.0401 6.97H12.0401C12.0401 8.6623 13.3901 10.03 15.0801 10.03V9.03ZM18.4601 9.03H15.0801V10.03H18.4601V9.03ZM20.5001 6.97C20.5001 8.11642 19.5814 9.03 18.4601 9.03V10.03C20.1388 10.03 21.5001 8.66358 21.5001 6.97H20.5001ZM20.5001 3.561V6.97H21.5001V3.561H20.5001ZM18.4601 1.5C19.58 1.5 20.5001 2.42218 20.5001 3.561H21.5001C21.5001 1.87782 20.1402 0.5 18.4601 0.5V1.5ZM18.4601 11.9697H15.0801V12.9697H18.4601V11.9697ZM21.5001 15.0307C21.5001 13.3374 20.139 11.9697 18.4601 11.9697V12.9697C19.5812 12.9697 20.5001 13.884 20.5001 15.0307H21.5001ZM21.5001 18.4397V15.0307H20.5001V18.4397H21.5001ZM18.4601 21.4997C20.1401 21.4997 21.5001 20.122 21.5001 18.4397H20.5001C20.5001 19.5774 19.5801 20.4997 18.4601 20.4997V21.4997ZM15.0801 21.4997H18.4601V20.4997H15.0801V21.4997ZM12.0401 18.4397C12.0401 20.1207 13.3889 21.4997 15.0801 21.4997V20.4997C13.9513 20.4997 13.0401 19.5787 13.0401 18.4397H12.0401ZM12.0401 15.0307V18.4397H13.0401V15.0307H12.0401ZM15.0801 11.9697C13.3899 11.9697 12.0401 13.3387 12.0401 15.0307H13.0401C13.0401 13.8827 13.9503 12.9697 15.0801 12.9697V11.9697Z" fill="#989EA5"/>
</svg>
