<svg width="17" height="20" viewBox="0 0 17 20" fill="none" xmlns="http://www.w3.org/2000/svg">
<path d="M2.75 0C1.2335 0 0 1.2335 0 2.75V16.5V16.75V17.25C0 18.7599 1.24011 20 2.75 20H15.75C15.8494 20.0014 15.9481 19.983 16.0403 19.946C16.1325 19.9089 16.2164 19.8539 16.2872 19.7841C16.358 19.7143 16.4142 19.6312 16.4526 19.5395C16.4909 19.4478 16.5107 19.3494 16.5107 19.25C16.5107 19.1506 16.4909 19.0522 16.4526 18.9605C16.4142 18.8688 16.358 18.7857 16.2872 18.7159C16.2164 18.6461 16.1325 18.5911 16.0403 18.554C15.9481 18.517 15.8494 18.4986 15.75 18.5H2.75C2.13662 18.5 1.63862 18.0762 1.52539 17.5H15.75C16.1645 17.5 16.5 17.1645 16.5 16.75V2.75C16.5 1.2335 15.2665 0 13.75 0H2.75ZM8.25 4C9.215 4 10 4.785 10 5.75C10 6.715 9.215 7.5 8.25 7.5C7.285 7.5 6.5 6.715 6.5 5.75C6.5 4.785 7.285 4 8.25 4ZM5.75 9.5H10.75C11.1635 9.5 11.5 9.8365 11.5 10.25V11.5C11.5 12.603 10.042 13.5 8.25 13.5C6.458 13.5 5 12.603 5 11.5V10.25C5 9.8365 5.3365 9.5 5.75 9.5Z" fill="#989EA5"/>
</svg>
