<svg width="18" height="24" viewBox="0 0 18 24" fill="none" xmlns="http://www.w3.org/2000/svg">
<path d="M8 0C7.74 0 7.48397 0.101969 7.29297 0.292969L4.29297 3.29297C3.90197 3.68397 3.90197 4.31703 4.29297 4.70703L7.29297 7.70703C7.57897 7.99303 8.00781 8.07783 8.38281 7.92383C8.75681 7.76883 9 7.405 9 7V5C12.8775 5 16 8.12252 16 12C16 13.0258 15.775 13.9948 15.377 14.877C15.318 14.9973 15.2838 15.1282 15.2764 15.2621C15.2691 15.3959 15.2887 15.5298 15.3341 15.6559C15.3795 15.7819 15.4498 15.8976 15.5408 15.996C15.6317 16.0944 15.7416 16.1735 15.8637 16.2286C15.9858 16.2837 16.1178 16.3137 16.2518 16.3168C16.3858 16.3199 16.519 16.2961 16.6436 16.2467C16.7681 16.1973 16.8815 16.1234 16.977 16.0294C17.0724 15.9353 17.148 15.8231 17.1992 15.6992C17.7072 14.5734 18 13.3202 18 12C18 7.04148 13.9585 3 9 3V1C9 0.596 8.75681 0.231172 8.38281 0.0761719C8.25881 0.0251719 8.129 0 8 0ZM1.72656 7.69922C1.53024 7.69755 1.33777 7.7537 1.17314 7.86067C1.00851 7.96765 0.879011 8.12071 0.800781 8.30078C0.292809 9.42662 0 10.6798 0 12C0 16.9585 4.04148 21 9 21V23C9 23.404 9.24319 23.7688 9.61719 23.9238C9.74119 23.9748 9.871 24 10 24C10.26 24 10.516 23.898 10.707 23.707L13.707 20.707C14.098 20.316 14.098 19.684 13.707 19.293L10.707 16.293C10.421 16.007 9.99219 15.9222 9.61719 16.0762C9.24319 16.2312 9 16.596 9 17V19C5.12252 19 2 15.8775 2 12C2 10.9742 2.22502 10.0052 2.62305 9.12305C2.69401 8.97136 2.72574 8.80427 2.71533 8.63713C2.70493 8.46998 2.65271 8.30813 2.56349 8.16641C2.47426 8.02469 2.35087 7.90765 2.20464 7.82602C2.05841 7.74439 1.89402 7.70079 1.72656 7.69922Z" fill="#989EA5"/>
<path d="M10.9263 13.04C10.9263 13.418 10.7957 13.7376 10.5343 13.999C10.2777 14.2556 9.93 14.4213 9.49134 14.496V14.895C9.49134 15.021 9.45167 15.1213 9.37234 15.196C9.29767 15.2753 9.19734 15.315 9.07134 15.315C8.95 15.315 8.84967 15.2753 8.77034 15.196C8.691 15.1213 8.65134 15.021 8.65134 14.895V14.517C8.39467 14.4936 8.145 14.44 7.90234 14.356C7.66434 14.272 7.45434 14.1646 7.27234 14.034C7.19767 13.9873 7.144 13.936 7.11134 13.88C7.08334 13.8193 7.06934 13.7446 7.06934 13.656C7.06934 13.5393 7.10434 13.4366 7.17434 13.348C7.249 13.2593 7.333 13.215 7.42634 13.215C7.515 13.215 7.62467 13.2523 7.75534 13.327C7.97 13.453 8.173 13.5463 8.36434 13.607C8.56034 13.663 8.76334 13.691 8.97334 13.691C9.25334 13.691 9.468 13.6396 9.61734 13.537C9.76667 13.4296 9.84134 13.2803 9.84134 13.089C9.84134 12.9723 9.797 12.8766 9.70834 12.802C9.62434 12.7273 9.51934 12.669 9.39334 12.627C9.26734 12.585 9.08534 12.5313 8.84734 12.466C8.502 12.3773 8.21734 12.2886 7.99334 12.2C7.76934 12.1113 7.57567 11.9713 7.41234 11.78C7.25367 11.5886 7.17434 11.332 7.17434 11.01C7.17434 10.632 7.30734 10.3076 7.57334 10.037C7.844 9.76628 8.19634 9.59362 8.63034 9.51895V9.11995C8.63034 8.99395 8.67 8.89362 8.74934 8.81895C8.82867 8.73962 8.929 8.69995 9.05034 8.69995C9.17634 8.69995 9.27667 8.73962 9.35134 8.81895C9.43067 8.89362 9.47034 8.99395 9.47034 9.11995V9.50495C9.89034 9.56095 10.2847 9.71962 10.6533 9.98095C10.7233 10.0276 10.7723 10.0813 10.8003 10.142C10.833 10.2026 10.8493 10.275 10.8493 10.359C10.8493 10.4756 10.812 10.5783 10.7373 10.667C10.6673 10.7556 10.5857 10.8 10.4923 10.8C10.441 10.8 10.392 10.793 10.3453 10.779C10.3033 10.765 10.2427 10.7346 10.1633 10.688C9.972 10.5666 9.79934 10.4756 9.64534 10.415C9.496 10.3543 9.31167 10.324 9.09234 10.324C8.84034 10.324 8.63734 10.38 8.48334 10.492C8.334 10.604 8.25934 10.7533 8.25934 10.94C8.25934 11.0706 8.30367 11.178 8.39234 11.262C8.481 11.3413 8.593 11.4043 8.72834 11.451C8.86367 11.4976 9.05267 11.5513 9.29534 11.612C9.636 11.696 9.91367 11.7823 10.1283 11.871C10.3477 11.955 10.5343 12.0926 10.6883 12.284C10.847 12.4706 10.9263 12.7226 10.9263 13.04Z" fill="#989EA5"/>
</svg>
