<svg width="20" height="26" viewBox="0 0 20 26" fill="none" xmlns="http://www.w3.org/2000/svg">
<path d="M9 1C8.74 1 8.48397 1.10197 8.29297 1.29297L5.29297 4.29297C4.90197 4.68397 4.90197 5.31703 5.29297 5.70703L8.29297 8.70703C8.57897 8.99303 9.00781 9.07783 9.38281 8.92383C9.75681 8.76883 10 8.405 10 8V6C13.8775 6 17 9.12252 17 13C17 14.0258 16.775 14.9948 16.377 15.877C16.318 15.9973 16.2838 16.1282 16.2764 16.2621C16.2691 16.3959 16.2887 16.5298 16.3341 16.6559C16.3795 16.7819 16.4498 16.8976 16.5408 16.996C16.6317 17.0944 16.7416 17.1735 16.8637 17.2286C16.9858 17.2837 17.1178 17.3137 17.2518 17.3168C17.3858 17.3199 17.519 17.2961 17.6436 17.2467C17.7681 17.1973 17.8815 17.1234 17.977 17.0294C18.0724 16.9353 18.148 16.8231 18.1992 16.6992C18.7072 15.5734 19 14.3202 19 13C19 8.04148 14.9585 4 10 4V2C10 1.596 9.75681 1.23117 9.38281 1.07617C9.25881 1.02517 9.129 1 9 1ZM2.72656 8.69922C2.53024 8.69755 2.33777 8.7537 2.17314 8.86067C2.00851 8.96765 1.87901 9.12071 1.80078 9.30078C1.29281 10.4266 1 11.6798 1 13C1 17.9585 5.04148 22 10 22V24C10 24.404 10.2432 24.7688 10.6172 24.9238C10.7412 24.9748 10.871 25 11 25C11.26 25 11.516 24.898 11.707 24.707L14.707 21.707C15.098 21.316 15.098 20.684 14.707 20.293L11.707 17.293C11.421 17.007 10.9922 16.9222 10.6172 17.0762C10.2432 17.2312 10 17.596 10 18V20C6.12252 20 3 16.8775 3 13C3 11.9742 3.22502 11.0052 3.62305 10.123C3.69401 9.97136 3.72574 9.80427 3.71533 9.63713C3.70493 9.46998 3.65271 9.30813 3.56349 9.16641C3.47426 9.02469 3.35087 8.90765 3.20464 8.82602C3.05841 8.74439 2.89402 8.70079 2.72656 8.69922Z" stroke="#989EA5"/>
<path d="M11.9263 14.04C11.9263 14.418 11.7957 14.7376 11.5343 14.999C11.2777 15.2556 10.93 15.4213 10.4913 15.496V15.895C10.4913 16.021 10.4517 16.1213 10.3723 16.196C10.2977 16.2753 10.1973 16.315 10.0713 16.315C9.95 16.315 9.84967 16.2753 9.77034 16.196C9.691 16.1213 9.65134 16.021 9.65134 15.895V15.517C9.39467 15.4936 9.145 15.44 8.90234 15.356C8.66434 15.272 8.45434 15.1646 8.27234 15.034C8.19767 14.9873 8.144 14.936 8.11134 14.88C8.08334 14.8193 8.06934 14.7446 8.06934 14.656C8.06934 14.5393 8.10434 14.4366 8.17434 14.348C8.249 14.2593 8.333 14.215 8.42634 14.215C8.515 14.215 8.62467 14.2523 8.75534 14.327C8.97 14.453 9.173 14.5463 9.36434 14.607C9.56034 14.663 9.76334 14.691 9.97334 14.691C10.2533 14.691 10.468 14.6396 10.6173 14.537C10.7667 14.4296 10.8413 14.2803 10.8413 14.089C10.8413 13.9723 10.797 13.8766 10.7083 13.802C10.6243 13.7273 10.5193 13.669 10.3933 13.627C10.2673 13.585 10.0853 13.5313 9.84734 13.466C9.502 13.3773 9.21734 13.2886 8.99334 13.2C8.76934 13.1113 8.57567 12.9713 8.41234 12.78C8.25367 12.5886 8.17434 12.332 8.17434 12.01C8.17434 11.632 8.30734 11.3076 8.57334 11.037C8.844 10.7663 9.19634 10.5936 9.63034 10.519V10.12C9.63034 9.99395 9.67 9.89362 9.74934 9.81895C9.82867 9.73962 9.929 9.69995 10.0503 9.69995C10.1763 9.69995 10.2767 9.73962 10.3513 9.81895C10.4307 9.89362 10.4703 9.99395 10.4703 10.12V10.505C10.8903 10.561 11.2847 10.7196 11.6533 10.981C11.7233 11.0276 11.7723 11.0813 11.8003 11.142C11.833 11.2026 11.8493 11.275 11.8493 11.359C11.8493 11.4756 11.812 11.5783 11.7373 11.667C11.6673 11.7556 11.5857 11.8 11.4923 11.8C11.441 11.8 11.392 11.793 11.3453 11.779C11.3033 11.765 11.2427 11.7346 11.1633 11.688C10.972 11.5666 10.7993 11.4756 10.6453 11.415C10.496 11.3543 10.3117 11.324 10.0923 11.324C9.84034 11.324 9.63734 11.38 9.48334 11.492C9.334 11.604 9.25934 11.7533 9.25934 11.94C9.25934 12.0706 9.30367 12.178 9.39234 12.262C9.481 12.3413 9.593 12.4043 9.72834 12.451C9.86367 12.4976 10.0527 12.5513 10.2953 12.612C10.636 12.696 10.9137 12.7823 11.1283 12.871C11.3477 12.955 11.5343 13.0926 11.6883 13.284C11.847 13.4706 11.9263 13.7226 11.9263 14.04Z" fill="#989EA5"/>
</svg>
