<svg width="20" height="18" viewBox="0 0 20 18" fill="none" xmlns="http://www.w3.org/2000/svg">
<path d="M0 4C0 2.11438 0 1.17157 0.585786 0.585786C1.17157 0 2.11438 0 4 0H16C17.8856 0 18.8284 0 19.4142 0.585786C20 1.17157 20 2.11438 20 4C20 4.94281 20 5.41421 19.7071 5.70711C19.4142 6 18.9428 6 18 6H2C1.05719 6 0.585786 6 0.292893 5.70711C0 5.41421 0 4.94281 0 4Z" fill="#5F59E1" style="mix-blend-mode:multiply"/>
<path fill-rule="evenodd" clip-rule="evenodd" d="M2.87868 17.1213C2 16.2426 2 14.8284 2 12V8H18V12C18 14.8284 18 16.2426 17.1213 17.1213C16.2426 18 14.8284 18 12 18H8C5.17157 18 3.75736 18 2.87868 17.1213ZM8 12C7.44772 12 7 12.4477 7 13C7 13.5523 7.44772 14 8 14H12C12.5523 14 13 13.5523 13 13C13 12.4477 12.5523 12 12 12H8Z" fill="#5F59E1" style="mix-blend-mode:multiply"/>
</svg>
